<mxfile host="app.diagrams.net" modified="2024-04-28T14:41:40.634Z" agent="Mozilla/5.0 (Macintosh; Intel Mac OS X 10_15_7) AppleWebKit/537.36 (KHTML, like Gecko) Chrome/124.0.0.0 Safari/537.36" etag="7Cns13W6LBmbGCEYnRo0" version="24.3.0" type="device">
  <diagram name="Page-1" id="k_6k_TvkbaPJTkHJNUNp">
    <mxGraphModel dx="2668" dy="1298" grid="0" gridSize="10" guides="1" tooltips="1" connect="1" arrows="1" fold="1" page="0" pageScale="1" pageWidth="827" pageHeight="1169" math="0" shadow="0">
      <root>
        <mxCell id="0" />
        <mxCell id="1" parent="0" />
        <mxCell id="T_M2wdokr-jcf68sooe3-49" value="я" style="dashed=0;shape=rect;fillColor=#ffffff;strokeColor=none;" vertex="1" parent="1">
          <mxGeometry x="-604" y="-221" width="358" height="642" as="geometry" />
        </mxCell>
        <mxCell id="T_M2wdokr-jcf68sooe3-50" value="12:30" style="dashed=0;shape=rect;align=right;fillColor=#000000;strokeColor=none;fontColor=#FFFFFF;spacingRight=4;spacingTop=1;fontStyle=0;fontSize=13;resizeWidth=1;whiteSpace=wrap;html=1;" vertex="1" parent="T_M2wdokr-jcf68sooe3-49">
          <mxGeometry width="358" height="24" relative="1" as="geometry" />
        </mxCell>
        <mxCell id="T_M2wdokr-jcf68sooe3-51" value="" style="dashed=0;shape=mxgraph.gmdl.top_bar;strokeColor=none;" vertex="1" parent="T_M2wdokr-jcf68sooe3-50">
          <mxGeometry x="1" y="0.5" width="46" height="14" relative="1" as="geometry">
            <mxPoint x="-92" y="-7" as="offset" />
          </mxGeometry>
        </mxCell>
        <mxCell id="T_M2wdokr-jcf68sooe3-60" value="" style="dashed=0;shape=rect;strokeColor=none;fillColor=#000000;resizeWidth=1;" vertex="1" parent="T_M2wdokr-jcf68sooe3-49">
          <mxGeometry y="1" width="358" height="48" relative="1" as="geometry">
            <mxPoint y="-48" as="offset" />
          </mxGeometry>
        </mxCell>
        <mxCell id="T_M2wdokr-jcf68sooe3-61" value="" style="dashed=0;shape=mxgraph.gmdl.back;strokeColor=#ffffff;fillColor=#000000;strokeWidth=2;" vertex="1" parent="T_M2wdokr-jcf68sooe3-60">
          <mxGeometry x="0.25" y="0.5" width="14" height="14" relative="1" as="geometry">
            <mxPoint x="-7" y="-7" as="offset" />
          </mxGeometry>
        </mxCell>
        <mxCell id="T_M2wdokr-jcf68sooe3-62" value="" style="shape=ellipse;strokeColor=#ffffff;fillColor=#000000;strokeWidth=2;" vertex="1" parent="T_M2wdokr-jcf68sooe3-60">
          <mxGeometry x="0.5" y="0.5" width="14" height="14" relative="1" as="geometry">
            <mxPoint x="-7" y="-7" as="offset" />
          </mxGeometry>
        </mxCell>
        <mxCell id="T_M2wdokr-jcf68sooe3-63" value="" style="shape=rect;strokeColor=#ffffff;fillColor=#000000;strokeWidth=2;" vertex="1" parent="T_M2wdokr-jcf68sooe3-60">
          <mxGeometry x="0.75" y="0.5" width="14" height="14" relative="1" as="geometry">
            <mxPoint x="-7" y="-7" as="offset" />
          </mxGeometry>
        </mxCell>
        <mxCell id="T_M2wdokr-jcf68sooe3-38" value="Лягти спати о 22:00" style="dashed=0;shape=rect;fillColor=#ffffff;strokeColor=none;verticalLabelPosition=middle;align=left;verticalAlign=middle;fontSize=15;spacingLeft=72;whiteSpace=wrap;html=1;" vertex="1" parent="T_M2wdokr-jcf68sooe3-49">
          <mxGeometry x="1.73" y="132" width="356.27" height="56" as="geometry" />
        </mxCell>
        <mxCell id="T_M2wdokr-jcf68sooe3-39" value="" style="dashed=0;shape=mxgraph.gmdl.checkbox;strokeColor=#666666;fillColor=none;strokeWidth=2;" vertex="1" parent="T_M2wdokr-jcf68sooe3-38">
          <mxGeometry y="0.5" width="18" height="18" relative="1" as="geometry">
            <mxPoint x="16" y="-9" as="offset" />
          </mxGeometry>
        </mxCell>
        <mxCell id="T_M2wdokr-jcf68sooe3-303" value="" style="html=1;verticalLabelPosition=bottom;align=center;labelBackgroundColor=#ffffff;verticalAlign=top;strokeWidth=2;strokeColor=#CCCCCC;shadow=0;dashed=0;shape=mxgraph.ios7.icons.bell;" vertex="1" parent="T_M2wdokr-jcf68sooe3-38">
          <mxGeometry x="316.27" y="21.62" width="13.27" height="12.77" as="geometry" />
        </mxCell>
        <mxCell id="T_M2wdokr-jcf68sooe3-43" value="Медитація" style="dashed=0;shape=rect;fillColor=#ffffff;strokeColor=none;verticalLabelPosition=middle;align=left;verticalAlign=middle;fontSize=15;spacingLeft=72;whiteSpace=wrap;html=1;" vertex="1" parent="T_M2wdokr-jcf68sooe3-49">
          <mxGeometry x="1.7299999999999796" y="244" width="289" height="56" as="geometry" />
        </mxCell>
        <mxCell id="T_M2wdokr-jcf68sooe3-44" value="" style="dashed=0;shape=mxgraph.gmdl.checkbox;strokeColor=#666666;fillColor=#030303;strokeWidth=2;" vertex="1" parent="T_M2wdokr-jcf68sooe3-43">
          <mxGeometry y="0.5" width="18" height="18" relative="1" as="geometry">
            <mxPoint x="16" y="-9" as="offset" />
          </mxGeometry>
        </mxCell>
        <mxCell id="T_M2wdokr-jcf68sooe3-45" value="Руханка зранку 10 хвилин" style="dashed=0;shape=rect;fillColor=#ffffff;strokeColor=none;verticalLabelPosition=middle;align=left;verticalAlign=middle;fontSize=15;spacingLeft=72;whiteSpace=wrap;html=1;" vertex="1" parent="T_M2wdokr-jcf68sooe3-49">
          <mxGeometry x="2.2299999999999796" y="300" width="287" height="56" as="geometry" />
        </mxCell>
        <mxCell id="T_M2wdokr-jcf68sooe3-46" value="" style="dashed=0;shape=mxgraph.gmdl.checkbox;strokeColor=#666666;fillColor=#000000;strokeWidth=2;" vertex="1" parent="T_M2wdokr-jcf68sooe3-45">
          <mxGeometry y="0.5" width="18" height="18" relative="1" as="geometry">
            <mxPoint x="16" y="-9" as="offset" />
          </mxGeometry>
        </mxCell>
        <mxCell id="T_M2wdokr-jcf68sooe3-47" value="Пройти 10 тисяч рухів після роботи" style="dashed=0;shape=rect;fillColor=#ffffff;strokeColor=none;verticalLabelPosition=middle;align=left;verticalAlign=middle;fontSize=15;spacingLeft=72;whiteSpace=wrap;html=1;" vertex="1" parent="T_M2wdokr-jcf68sooe3-49">
          <mxGeometry x="1.73" y="188" width="354.54" height="56" as="geometry" />
        </mxCell>
        <mxCell id="T_M2wdokr-jcf68sooe3-48" value="" style="dashed=0;shape=mxgraph.gmdl.checkbox;strokeColor=#666666;fillColor=none;strokeWidth=2;" vertex="1" parent="T_M2wdokr-jcf68sooe3-47">
          <mxGeometry y="0.5" width="18" height="18" relative="1" as="geometry">
            <mxPoint x="16" y="-9" as="offset" />
          </mxGeometry>
        </mxCell>
        <mxCell id="T_M2wdokr-jcf68sooe3-2" value="" style="dashed=0;align=center;fontSize=12;shape=rect;fillColor=#ffffff;strokeColor=none;shadow=0;hachureGap=4;pointerEvents=0;fontFamily=Architects Daughter;fontSource=https%3A%2F%2Ffonts.googleapis.com%2Fcss%3Ffamily%3DArchitects%2BDaughter;" vertex="1" parent="T_M2wdokr-jcf68sooe3-49">
          <mxGeometry x="-1.04" y="547" width="359.04" height="48" as="geometry" />
        </mxCell>
        <mxCell id="T_M2wdokr-jcf68sooe3-3" value="&lt;font color=&quot;#000000&quot;&gt;Головна&lt;/font&gt;" style="dashed=0;html=1;shape=mxgraph.gmdl.calendar;fillColor=#000000;strokeColor=none;fontColor=#808080;verticalAlign=top;spacingLeft=0;fontSize=10;labelPosition=center;verticalLabelPosition=bottom;align=center;spacingBottom=0;spacingTop=-6;hachureGap=4;pointerEvents=0;fontFamily=Helvetica;aspect=fixed;shadow=0;sketch=0;" vertex="1" parent="T_M2wdokr-jcf68sooe3-2">
          <mxGeometry x="0.15" y="0.5" width="20" height="20" relative="1" as="geometry">
            <mxPoint x="-10" y="-15" as="offset" />
          </mxGeometry>
        </mxCell>
        <mxCell id="T_M2wdokr-jcf68sooe3-4" value="&lt;font color=&quot;#808080&quot;&gt;Щоденник&lt;/font&gt;" style="dashed=0;html=1;shape=mxgraph.gmdl.heart;fillColor=#808080;strokeColor=none;fontColor=#00796B;verticalAlign=top;spacingLeft=0;fontSize=10;labelPosition=center;verticalLabelPosition=bottom;align=center;spacingBottom=0;spacingTop=-5;hachureGap=4;pointerEvents=0;fontFamily=Helvetica;" vertex="1" parent="T_M2wdokr-jcf68sooe3-2">
          <mxGeometry x="0.5" y="0.5" width="20" height="18" relative="1" as="geometry">
            <mxPoint x="-10" y="-14" as="offset" />
          </mxGeometry>
        </mxCell>
        <mxCell id="T_M2wdokr-jcf68sooe3-5" value="Профіль" style="dashed=0;html=1;shape=mxgraph.gmdl.chat;fillColor=#808080;strokeColor=none;fontColor=#808080;verticalAlign=top;spacingLeft=0;fontSize=10;labelPosition=center;verticalLabelPosition=bottom;align=center;spacingBottom=0;spacingTop=-6;hachureGap=4;pointerEvents=0;fontFamily=Helvetica;aspect=fixed;shadow=0;sketch=0;gradientColor=none;fillStyle=solid;" vertex="1" parent="T_M2wdokr-jcf68sooe3-2">
          <mxGeometry x="0.85" y="0.5" width="20" height="20" relative="1" as="geometry">
            <mxPoint x="-10" y="-15" as="offset" />
          </mxGeometry>
        </mxCell>
        <mxCell id="T_M2wdokr-jcf68sooe3-70" value="S" style="text;verticalAlign=middle;align=center;fontColor=#808080;resizeWidth=1;whiteSpace=wrap;html=1;" vertex="1" parent="T_M2wdokr-jcf68sooe3-49">
          <mxGeometry width="49" height="40" relative="1" as="geometry">
            <mxPoint x="2" y="30" as="offset" />
          </mxGeometry>
        </mxCell>
        <mxCell id="T_M2wdokr-jcf68sooe3-71" value="M" style="text;verticalAlign=middle;align=center;fontColor=#808080;resizeWidth=1;whiteSpace=wrap;html=1;" vertex="1" parent="T_M2wdokr-jcf68sooe3-49">
          <mxGeometry x="0.1463" width="46" height="40" relative="1" as="geometry">
            <mxPoint x="2" y="30" as="offset" />
          </mxGeometry>
        </mxCell>
        <mxCell id="T_M2wdokr-jcf68sooe3-72" value="T" style="text;verticalAlign=middle;align=center;fontColor=#808080;resizeWidth=1;whiteSpace=wrap;html=1;" vertex="1" parent="T_M2wdokr-jcf68sooe3-49">
          <mxGeometry x="0.2896" width="46" height="40" relative="1" as="geometry">
            <mxPoint x="2" y="30" as="offset" />
          </mxGeometry>
        </mxCell>
        <mxCell id="T_M2wdokr-jcf68sooe3-73" value="W" style="text;verticalAlign=middle;align=center;fontColor=#808080;resizeWidth=1;whiteSpace=wrap;html=1;" vertex="1" parent="T_M2wdokr-jcf68sooe3-49">
          <mxGeometry x="0.4299" width="45.57" height="39.63" relative="1" as="geometry">
            <mxPoint x="2.0000999999999998" y="30" as="offset" />
          </mxGeometry>
        </mxCell>
        <mxCell id="T_M2wdokr-jcf68sooe3-74" value="T" style="text;verticalAlign=middle;align=center;fontColor=#808080;resizeWidth=1;whiteSpace=wrap;html=1;" vertex="1" parent="T_M2wdokr-jcf68sooe3-49">
          <mxGeometry x="0.5701" width="46" height="40" relative="1" as="geometry">
            <mxPoint x="2" y="30" as="offset" />
          </mxGeometry>
        </mxCell>
        <mxCell id="T_M2wdokr-jcf68sooe3-75" value="F" style="text;verticalAlign=middle;align=center;fontColor=#808080;resizeWidth=1;whiteSpace=wrap;html=1;" vertex="1" parent="T_M2wdokr-jcf68sooe3-49">
          <mxGeometry x="0.7104" width="46" height="40" relative="1" as="geometry">
            <mxPoint x="2" y="30" as="offset" />
          </mxGeometry>
        </mxCell>
        <mxCell id="T_M2wdokr-jcf68sooe3-76" value="S" style="text;verticalAlign=middle;align=center;fontColor=#808080;resizeWidth=1;whiteSpace=wrap;html=1;" vertex="1" parent="T_M2wdokr-jcf68sooe3-49">
          <mxGeometry x="0.8506" width="49" height="40" relative="1" as="geometry">
            <mxPoint x="2" y="30" as="offset" />
          </mxGeometry>
        </mxCell>
        <mxCell id="T_M2wdokr-jcf68sooe3-85" value="9" style="text;verticalAlign=middle;align=center;fontColor=#808080;fontStyle=1;resizeWidth=1;whiteSpace=wrap;html=1;" vertex="1" parent="T_M2wdokr-jcf68sooe3-49">
          <mxGeometry width="49" height="40" relative="1" as="geometry">
            <mxPoint y="64" as="offset" />
          </mxGeometry>
        </mxCell>
        <mxCell id="T_M2wdokr-jcf68sooe3-86" value="10" style="text;verticalAlign=middle;align=center;fontColor=#808080;fontStyle=1;resizeWidth=1;whiteSpace=wrap;html=1;" vertex="1" parent="T_M2wdokr-jcf68sooe3-49">
          <mxGeometry x="0.1463" width="46" height="40" relative="1" as="geometry">
            <mxPoint y="64" as="offset" />
          </mxGeometry>
        </mxCell>
        <mxCell id="T_M2wdokr-jcf68sooe3-87" value="11" style="text;verticalAlign=middle;align=center;fontColor=#808080;fontStyle=1;resizeWidth=1;whiteSpace=wrap;html=1;" vertex="1" parent="T_M2wdokr-jcf68sooe3-49">
          <mxGeometry x="0.2896" width="46" height="40" relative="1" as="geometry">
            <mxPoint y="64" as="offset" />
          </mxGeometry>
        </mxCell>
        <mxCell id="T_M2wdokr-jcf68sooe3-88" value="12" style="text;verticalAlign=middle;align=center;fontColor=#808080;fontStyle=1;resizeWidth=1;whiteSpace=wrap;html=1;" vertex="1" parent="T_M2wdokr-jcf68sooe3-49">
          <mxGeometry x="0.4299" width="46" height="40" relative="1" as="geometry">
            <mxPoint y="64" as="offset" />
          </mxGeometry>
        </mxCell>
        <mxCell id="T_M2wdokr-jcf68sooe3-90" value="14" style="text;verticalAlign=middle;align=center;fontColor=#4D4D4D;fontStyle=1;resizeWidth=1;whiteSpace=wrap;html=1;" vertex="1" parent="T_M2wdokr-jcf68sooe3-49">
          <mxGeometry x="0.7104" width="46" height="40" relative="1" as="geometry">
            <mxPoint y="64" as="offset" />
          </mxGeometry>
        </mxCell>
        <mxCell id="T_M2wdokr-jcf68sooe3-89" value="13" style="shape=ellipse;fillColor=#000000;strokeColor=none;verticalAlign=middle;align=center;fontColor=#ffffff;fontStyle=1;whiteSpace=wrap;html=1;" vertex="1" parent="T_M2wdokr-jcf68sooe3-49">
          <mxGeometry x="0.6402" width="40" height="40" relative="1" as="geometry">
            <mxPoint x="-20" y="64" as="offset" />
          </mxGeometry>
        </mxCell>
        <mxCell id="T_M2wdokr-jcf68sooe3-91" value="15" style="text;verticalAlign=middle;align=center;fontColor=#4D4D4D;fontStyle=1;resizeWidth=1;whiteSpace=wrap;html=1;" vertex="1" parent="T_M2wdokr-jcf68sooe3-49">
          <mxGeometry x="0.8506" width="49" height="40" relative="1" as="geometry">
            <mxPoint y="64" as="offset" />
          </mxGeometry>
        </mxCell>
        <mxCell id="T_M2wdokr-jcf68sooe3-113" value="" style="shape=ellipse;dashed=0;strokeColor=none;shadow=1;fontSize=13;align=center;verticalAlign=top;labelPosition=center;verticalLabelPosition=bottom;html=1;aspect=fixed;" vertex="1" parent="T_M2wdokr-jcf68sooe3-49">
          <mxGeometry x="289.23" y="486" width="40" height="40" as="geometry" />
        </mxCell>
        <mxCell id="T_M2wdokr-jcf68sooe3-114" value="" style="dashed=0;html=1;shape=mxgraph.gmdl.plus;strokeColor=#737373;strokeWidth=2;shadow=0;sketch=0;html=1;labelPosition=center;verticalLabelPosition=bottom;align=center;verticalAlign=top;" vertex="1" parent="T_M2wdokr-jcf68sooe3-113">
          <mxGeometry x="12" y="12" width="16" height="16" as="geometry" />
        </mxCell>
        <mxCell id="T_M2wdokr-jcf68sooe3-115" value="Развернути" style="text;strokeColor=none;fillColor=none;html=1;align=center;verticalAlign=middle;whiteSpace=wrap;rounded=0;fontSize=10;fontColor=#808080;" vertex="1" parent="T_M2wdokr-jcf68sooe3-49">
          <mxGeometry x="259.27" y="105" width="96.73" height="30" as="geometry" />
        </mxCell>
        <mxCell id="T_M2wdokr-jcf68sooe3-116" value="2/4 Зробленно" style="text;strokeColor=none;fillColor=none;html=1;align=center;verticalAlign=middle;whiteSpace=wrap;rounded=0;fontSize=10;fontColor=#808080;" vertex="1" parent="T_M2wdokr-jcf68sooe3-49">
          <mxGeometry x="1.7299999999999613" y="105" width="97" height="30" as="geometry" />
        </mxCell>
        <mxCell id="T_M2wdokr-jcf68sooe3-117" value="" style="dashed=0;shape=rect;fillColor=#ffffff;strokeColor=none;" vertex="1" parent="1">
          <mxGeometry x="-22" y="-234" width="358" height="642" as="geometry" />
        </mxCell>
        <mxCell id="T_M2wdokr-jcf68sooe3-118" value="12:30" style="dashed=0;shape=rect;align=right;fillColor=#000000;strokeColor=none;fontColor=#FFFFFF;spacingRight=4;spacingTop=1;fontStyle=0;fontSize=13;resizeWidth=1;whiteSpace=wrap;html=1;" vertex="1" parent="T_M2wdokr-jcf68sooe3-117">
          <mxGeometry width="358" height="24" relative="1" as="geometry" />
        </mxCell>
        <mxCell id="T_M2wdokr-jcf68sooe3-119" value="" style="dashed=0;shape=mxgraph.gmdl.top_bar;strokeColor=none;" vertex="1" parent="T_M2wdokr-jcf68sooe3-118">
          <mxGeometry x="1" y="0.5" width="46" height="14" relative="1" as="geometry">
            <mxPoint x="-92" y="-7" as="offset" />
          </mxGeometry>
        </mxCell>
        <mxCell id="T_M2wdokr-jcf68sooe3-120" value="" style="dashed=0;shape=rect;strokeColor=none;fillColor=#000000;resizeWidth=1;" vertex="1" parent="T_M2wdokr-jcf68sooe3-117">
          <mxGeometry y="1" width="358" height="48" relative="1" as="geometry">
            <mxPoint y="-48" as="offset" />
          </mxGeometry>
        </mxCell>
        <mxCell id="T_M2wdokr-jcf68sooe3-121" value="" style="dashed=0;shape=mxgraph.gmdl.back;strokeColor=#ffffff;fillColor=#000000;strokeWidth=2;" vertex="1" parent="T_M2wdokr-jcf68sooe3-120">
          <mxGeometry x="0.25" y="0.5" width="14" height="14" relative="1" as="geometry">
            <mxPoint x="-7" y="-7" as="offset" />
          </mxGeometry>
        </mxCell>
        <mxCell id="T_M2wdokr-jcf68sooe3-122" value="" style="shape=ellipse;strokeColor=#ffffff;fillColor=#000000;strokeWidth=2;" vertex="1" parent="T_M2wdokr-jcf68sooe3-120">
          <mxGeometry x="0.5" y="0.5" width="14" height="14" relative="1" as="geometry">
            <mxPoint x="-7" y="-7" as="offset" />
          </mxGeometry>
        </mxCell>
        <mxCell id="T_M2wdokr-jcf68sooe3-123" value="" style="shape=rect;strokeColor=#ffffff;fillColor=#000000;strokeWidth=2;" vertex="1" parent="T_M2wdokr-jcf68sooe3-120">
          <mxGeometry x="0.75" y="0.5" width="14" height="14" relative="1" as="geometry">
            <mxPoint x="-7" y="-7" as="offset" />
          </mxGeometry>
        </mxCell>
        <mxCell id="T_M2wdokr-jcf68sooe3-124" value="Лягти спати о 22:00" style="dashed=0;shape=rect;fillColor=#ffffff;strokeColor=none;verticalLabelPosition=middle;align=left;verticalAlign=middle;fontSize=15;spacingLeft=72;whiteSpace=wrap;html=1;" vertex="1" parent="T_M2wdokr-jcf68sooe3-117">
          <mxGeometry x="1.96" y="407" width="356.27" height="56" as="geometry" />
        </mxCell>
        <mxCell id="T_M2wdokr-jcf68sooe3-125" value="" style="dashed=0;shape=mxgraph.gmdl.checkbox;strokeColor=#666666;fillColor=none;strokeWidth=2;" vertex="1" parent="T_M2wdokr-jcf68sooe3-124">
          <mxGeometry y="0.5" width="18" height="18" relative="1" as="geometry">
            <mxPoint x="16" y="-9" as="offset" />
          </mxGeometry>
        </mxCell>
        <mxCell id="T_M2wdokr-jcf68sooe3-304" value="" style="html=1;verticalLabelPosition=bottom;align=center;labelBackgroundColor=#ffffff;verticalAlign=top;strokeWidth=2;strokeColor=#CCCCCC;shadow=0;dashed=0;shape=mxgraph.ios7.icons.bell;" vertex="1" parent="T_M2wdokr-jcf68sooe3-124">
          <mxGeometry x="303.27" y="21.620000000000005" width="13.27" height="12.77" as="geometry" />
        </mxCell>
        <mxCell id="T_M2wdokr-jcf68sooe3-126" value="Медитація" style="dashed=0;shape=rect;fillColor=#ffffff;strokeColor=none;verticalLabelPosition=middle;align=left;verticalAlign=middle;fontSize=15;spacingLeft=72;whiteSpace=wrap;html=1;" vertex="1" parent="T_M2wdokr-jcf68sooe3-117">
          <mxGeometry x="1.9599999999999795" y="519" width="289" height="56" as="geometry" />
        </mxCell>
        <mxCell id="T_M2wdokr-jcf68sooe3-127" value="" style="dashed=0;shape=mxgraph.gmdl.checkbox;strokeColor=#666666;fillColor=#030303;strokeWidth=2;" vertex="1" parent="T_M2wdokr-jcf68sooe3-126">
          <mxGeometry y="0.5" width="18" height="18" relative="1" as="geometry">
            <mxPoint x="16" y="-9" as="offset" />
          </mxGeometry>
        </mxCell>
        <mxCell id="T_M2wdokr-jcf68sooe3-130" value="Пройти 10 тисяч рухів після роботи" style="dashed=0;shape=rect;fillColor=#ffffff;strokeColor=none;verticalLabelPosition=middle;align=left;verticalAlign=middle;fontSize=15;spacingLeft=72;whiteSpace=wrap;html=1;" vertex="1" parent="T_M2wdokr-jcf68sooe3-117">
          <mxGeometry x="1.96" y="463" width="354.54" height="56" as="geometry" />
        </mxCell>
        <mxCell id="T_M2wdokr-jcf68sooe3-131" value="" style="dashed=0;shape=mxgraph.gmdl.checkbox;strokeColor=#666666;fillColor=none;strokeWidth=2;" vertex="1" parent="T_M2wdokr-jcf68sooe3-130">
          <mxGeometry y="0.5" width="18" height="18" relative="1" as="geometry">
            <mxPoint x="16" y="-9" as="offset" />
          </mxGeometry>
        </mxCell>
        <mxCell id="T_M2wdokr-jcf68sooe3-132" value="" style="dashed=0;align=center;fontSize=12;shape=rect;fillColor=#ffffff;strokeColor=none;shadow=0;hachureGap=4;pointerEvents=0;fontFamily=Architects Daughter;fontSource=https%3A%2F%2Ffonts.googleapis.com%2Fcss%3Ffamily%3DArchitects%2BDaughter;" vertex="1" parent="T_M2wdokr-jcf68sooe3-117">
          <mxGeometry x="-1.04" y="547" width="359.04" height="48" as="geometry" />
        </mxCell>
        <mxCell id="T_M2wdokr-jcf68sooe3-133" value="Головна" style="dashed=0;html=1;shape=mxgraph.gmdl.calendar;fillColor=#000000;strokeColor=none;fontColor=#000000;verticalAlign=top;spacingLeft=0;fontSize=10;labelPosition=center;verticalLabelPosition=bottom;align=center;spacingBottom=0;spacingTop=-6;hachureGap=4;pointerEvents=0;fontFamily=Helvetica;aspect=fixed;shadow=0;sketch=0;" vertex="1" parent="T_M2wdokr-jcf68sooe3-132">
          <mxGeometry x="0.15" y="0.5" width="20" height="20" relative="1" as="geometry">
            <mxPoint x="-10" y="-15" as="offset" />
          </mxGeometry>
        </mxCell>
        <mxCell id="T_M2wdokr-jcf68sooe3-134" value="&lt;font color=&quot;#808080&quot;&gt;Щоденник&lt;/font&gt;" style="dashed=0;html=1;shape=mxgraph.gmdl.heart;fillColor=#808080;strokeColor=none;fontColor=#00796B;verticalAlign=top;spacingLeft=0;fontSize=10;labelPosition=center;verticalLabelPosition=bottom;align=center;spacingBottom=0;spacingTop=-5;hachureGap=4;pointerEvents=0;fontFamily=Helvetica;" vertex="1" parent="T_M2wdokr-jcf68sooe3-132">
          <mxGeometry x="0.5" y="0.5" width="20" height="18" relative="1" as="geometry">
            <mxPoint x="-10" y="-14" as="offset" />
          </mxGeometry>
        </mxCell>
        <mxCell id="T_M2wdokr-jcf68sooe3-135" value="Профіль" style="dashed=0;html=1;shape=mxgraph.gmdl.chat;fillColor=#808080;strokeColor=none;fontColor=#808080;verticalAlign=top;spacingLeft=0;fontSize=10;labelPosition=center;verticalLabelPosition=bottom;align=center;spacingBottom=0;spacingTop=-6;hachureGap=4;pointerEvents=0;fontFamily=Helvetica;aspect=fixed;shadow=0;sketch=0;gradientColor=none;fillStyle=solid;" vertex="1" parent="T_M2wdokr-jcf68sooe3-132">
          <mxGeometry x="0.85" y="0.5" width="20" height="20" relative="1" as="geometry">
            <mxPoint x="-10" y="-15" as="offset" />
          </mxGeometry>
        </mxCell>
        <mxCell id="T_M2wdokr-jcf68sooe3-150" value="" style="shape=ellipse;dashed=0;strokeColor=none;shadow=1;fontSize=13;align=center;verticalAlign=top;labelPosition=center;verticalLabelPosition=bottom;html=1;aspect=fixed;" vertex="1" parent="T_M2wdokr-jcf68sooe3-117">
          <mxGeometry x="289.23" y="486" width="40" height="40" as="geometry" />
        </mxCell>
        <mxCell id="T_M2wdokr-jcf68sooe3-151" value="" style="dashed=0;html=1;shape=mxgraph.gmdl.plus;strokeColor=#737373;strokeWidth=2;shadow=0;sketch=0;html=1;labelPosition=center;verticalLabelPosition=bottom;align=center;verticalAlign=top;" vertex="1" parent="T_M2wdokr-jcf68sooe3-150">
          <mxGeometry x="12" y="12" width="16" height="16" as="geometry" />
        </mxCell>
        <mxCell id="T_M2wdokr-jcf68sooe3-152" value="Звернути" style="text;strokeColor=none;fillColor=none;html=1;align=center;verticalAlign=middle;whiteSpace=wrap;rounded=0;fontSize=10;fontColor=#808080;" vertex="1" parent="T_M2wdokr-jcf68sooe3-117">
          <mxGeometry x="259.5" y="380" width="97" height="30" as="geometry" />
        </mxCell>
        <mxCell id="T_M2wdokr-jcf68sooe3-153" value="2/4 Зробленно" style="text;strokeColor=none;fillColor=none;html=1;align=center;verticalAlign=middle;whiteSpace=wrap;rounded=0;fontSize=10;fontColor=#808080;" vertex="1" parent="T_M2wdokr-jcf68sooe3-117">
          <mxGeometry x="1.9599999999999613" y="380" width="97" height="30" as="geometry" />
        </mxCell>
        <mxCell id="T_M2wdokr-jcf68sooe3-158" value="Травень 2024" style="text;verticalAlign=middle;fontColor=#4D4D4D;spacingTop=6;spacing=16;fontSize=13;align=center;fontStyle=1;resizeWidth=1;whiteSpace=wrap;html=1;" vertex="1" parent="T_M2wdokr-jcf68sooe3-117">
          <mxGeometry x="0.1463" width="232" height="40" relative="1" as="geometry">
            <mxPoint x="2" y="28" as="offset" />
          </mxGeometry>
        </mxCell>
        <mxCell id="T_M2wdokr-jcf68sooe3-159" value="&gt;" style="text;verticalAlign=middle;fontColor=#4D4D4D;spacingTop=6;spacing=16;fontSize=20;align=center;resizeWidth=1;" vertex="1" parent="T_M2wdokr-jcf68sooe3-117">
          <mxGeometry x="0.8537" width="48" height="40" relative="1" as="geometry">
            <mxPoint x="2" y="28" as="offset" />
          </mxGeometry>
        </mxCell>
        <mxCell id="T_M2wdokr-jcf68sooe3-157" value="&lt;" style="text;verticalAlign=middle;fontColor=#4D4D4D;spacingTop=6;spacing=16;fontSize=20;align=center;resizeWidth=1;" vertex="1" parent="T_M2wdokr-jcf68sooe3-117">
          <mxGeometry width="48" height="40" relative="1" as="geometry">
            <mxPoint x="2" y="28" as="offset" />
          </mxGeometry>
        </mxCell>
        <mxCell id="T_M2wdokr-jcf68sooe3-160" value="S" style="text;verticalAlign=middle;align=center;fontColor=#808080;resizeWidth=1;whiteSpace=wrap;html=1;" vertex="1" parent="T_M2wdokr-jcf68sooe3-117">
          <mxGeometry width="49" height="40" relative="1" as="geometry">
            <mxPoint x="2" y="78" as="offset" />
          </mxGeometry>
        </mxCell>
        <mxCell id="T_M2wdokr-jcf68sooe3-161" value="M" style="text;verticalAlign=middle;align=center;fontColor=#808080;resizeWidth=1;whiteSpace=wrap;html=1;" vertex="1" parent="T_M2wdokr-jcf68sooe3-117">
          <mxGeometry x="0.1463" width="46" height="40" relative="1" as="geometry">
            <mxPoint x="2" y="78" as="offset" />
          </mxGeometry>
        </mxCell>
        <mxCell id="T_M2wdokr-jcf68sooe3-162" value="T" style="text;verticalAlign=middle;align=center;fontColor=#808080;resizeWidth=1;whiteSpace=wrap;html=1;" vertex="1" parent="T_M2wdokr-jcf68sooe3-117">
          <mxGeometry x="0.2896" width="46" height="40" relative="1" as="geometry">
            <mxPoint x="2" y="78" as="offset" />
          </mxGeometry>
        </mxCell>
        <mxCell id="T_M2wdokr-jcf68sooe3-163" value="W" style="text;verticalAlign=middle;align=center;fontColor=#808080;resizeWidth=1;whiteSpace=wrap;html=1;" vertex="1" parent="T_M2wdokr-jcf68sooe3-117">
          <mxGeometry x="0.4299" width="46" height="40" relative="1" as="geometry">
            <mxPoint x="2" y="78" as="offset" />
          </mxGeometry>
        </mxCell>
        <mxCell id="T_M2wdokr-jcf68sooe3-164" value="T" style="text;verticalAlign=middle;align=center;fontColor=#808080;resizeWidth=1;whiteSpace=wrap;html=1;" vertex="1" parent="T_M2wdokr-jcf68sooe3-117">
          <mxGeometry x="0.5701" width="46" height="40" relative="1" as="geometry">
            <mxPoint x="2" y="78" as="offset" />
          </mxGeometry>
        </mxCell>
        <mxCell id="T_M2wdokr-jcf68sooe3-165" value="F" style="text;verticalAlign=middle;align=center;fontColor=#808080;resizeWidth=1;whiteSpace=wrap;html=1;" vertex="1" parent="T_M2wdokr-jcf68sooe3-117">
          <mxGeometry x="0.7104" width="46" height="40" relative="1" as="geometry">
            <mxPoint x="2" y="78" as="offset" />
          </mxGeometry>
        </mxCell>
        <mxCell id="T_M2wdokr-jcf68sooe3-166" value="S" style="text;verticalAlign=middle;align=center;fontColor=#808080;resizeWidth=1;whiteSpace=wrap;html=1;" vertex="1" parent="T_M2wdokr-jcf68sooe3-117">
          <mxGeometry x="0.8506" width="49" height="40" relative="1" as="geometry">
            <mxPoint x="2" y="78" as="offset" />
          </mxGeometry>
        </mxCell>
        <mxCell id="T_M2wdokr-jcf68sooe3-167" value="1" style="text;verticalAlign=middle;align=center;fontColor=#4D4D4D;fontStyle=1;resizeWidth=1;whiteSpace=wrap;html=1;" vertex="1" parent="T_M2wdokr-jcf68sooe3-117">
          <mxGeometry x="0.8506" width="49" height="40" relative="1" as="geometry">
            <mxPoint x="2" y="118" as="offset" />
          </mxGeometry>
        </mxCell>
        <mxCell id="T_M2wdokr-jcf68sooe3-174" value="8" style="text;verticalAlign=middle;align=center;fontColor=#4D4D4D;fontStyle=1;resizeWidth=1;whiteSpace=wrap;html=1;" vertex="1" parent="T_M2wdokr-jcf68sooe3-117">
          <mxGeometry x="0.8506" width="49" height="40" relative="1" as="geometry">
            <mxPoint x="2" y="158" as="offset" />
          </mxGeometry>
        </mxCell>
        <mxCell id="T_M2wdokr-jcf68sooe3-173" value="7" style="text;verticalAlign=middle;align=center;fontColor=#4d4d4d;fontStyle=1;resizeWidth=1;whiteSpace=wrap;html=1;" vertex="1" parent="T_M2wdokr-jcf68sooe3-117">
          <mxGeometry x="0.7104" width="46" height="40" relative="1" as="geometry">
            <mxPoint x="2" y="158" as="offset" />
          </mxGeometry>
        </mxCell>
        <mxCell id="T_M2wdokr-jcf68sooe3-172" value="6" style="text;verticalAlign=middle;align=center;fontColor=#4D4D4D;fontStyle=1;resizeWidth=1;whiteSpace=wrap;html=1;" vertex="1" parent="T_M2wdokr-jcf68sooe3-117">
          <mxGeometry x="0.5701" width="46" height="40" relative="1" as="geometry">
            <mxPoint x="2" y="158" as="offset" />
          </mxGeometry>
        </mxCell>
        <mxCell id="T_M2wdokr-jcf68sooe3-171" value="5" style="text;verticalAlign=middle;align=center;fontColor=#4D4D4D;fontStyle=1;resizeWidth=1;whiteSpace=wrap;html=1;" vertex="1" parent="T_M2wdokr-jcf68sooe3-117">
          <mxGeometry x="0.4299" width="46" height="40" relative="1" as="geometry">
            <mxPoint x="2" y="158" as="offset" />
          </mxGeometry>
        </mxCell>
        <mxCell id="T_M2wdokr-jcf68sooe3-170" value="4" style="text;verticalAlign=middle;align=center;fontColor=#4D4D4D;fontStyle=1;resizeWidth=1;whiteSpace=wrap;html=1;" vertex="1" parent="T_M2wdokr-jcf68sooe3-117">
          <mxGeometry x="0.2896" width="46" height="40" relative="1" as="geometry">
            <mxPoint x="2" y="158" as="offset" />
          </mxGeometry>
        </mxCell>
        <mxCell id="T_M2wdokr-jcf68sooe3-169" value="3" style="text;verticalAlign=middle;align=center;fontColor=#4D4D4D;fontStyle=1;resizeWidth=1;whiteSpace=wrap;html=1;" vertex="1" parent="T_M2wdokr-jcf68sooe3-117">
          <mxGeometry x="0.1463" width="46" height="40" relative="1" as="geometry">
            <mxPoint x="2" y="158" as="offset" />
          </mxGeometry>
        </mxCell>
        <mxCell id="T_M2wdokr-jcf68sooe3-168" value="2" style="text;verticalAlign=middle;align=center;fontColor=#4D4D4D;fontStyle=1;resizeWidth=1;whiteSpace=wrap;html=1;" vertex="1" parent="T_M2wdokr-jcf68sooe3-117">
          <mxGeometry width="49" height="40" relative="1" as="geometry">
            <mxPoint x="2" y="158" as="offset" />
          </mxGeometry>
        </mxCell>
        <mxCell id="T_M2wdokr-jcf68sooe3-175" value="9" style="text;verticalAlign=middle;align=center;fontColor=#4D4D4D;fontStyle=1;resizeWidth=1;whiteSpace=wrap;html=1;" vertex="1" parent="T_M2wdokr-jcf68sooe3-117">
          <mxGeometry width="49" height="40" relative="1" as="geometry">
            <mxPoint x="2" y="198" as="offset" />
          </mxGeometry>
        </mxCell>
        <mxCell id="T_M2wdokr-jcf68sooe3-176" value="10" style="text;verticalAlign=middle;align=center;fontColor=#4D4D4D;fontStyle=1;resizeWidth=1;whiteSpace=wrap;html=1;" vertex="1" parent="T_M2wdokr-jcf68sooe3-117">
          <mxGeometry x="0.1463" width="46" height="40" relative="1" as="geometry">
            <mxPoint x="2" y="198" as="offset" />
          </mxGeometry>
        </mxCell>
        <mxCell id="T_M2wdokr-jcf68sooe3-177" value="11" style="text;verticalAlign=middle;align=center;fontColor=#4D4D4D;fontStyle=1;resizeWidth=1;whiteSpace=wrap;html=1;" vertex="1" parent="T_M2wdokr-jcf68sooe3-117">
          <mxGeometry x="0.2896" width="46" height="40" relative="1" as="geometry">
            <mxPoint x="2" y="198" as="offset" />
          </mxGeometry>
        </mxCell>
        <mxCell id="T_M2wdokr-jcf68sooe3-178" value="12" style="text;verticalAlign=middle;align=center;fontColor=#4D4D4D;fontStyle=1;resizeWidth=1;whiteSpace=wrap;html=1;" vertex="1" parent="T_M2wdokr-jcf68sooe3-117">
          <mxGeometry x="0.4299" width="46" height="40" relative="1" as="geometry">
            <mxPoint x="2" y="198" as="offset" />
          </mxGeometry>
        </mxCell>
        <mxCell id="T_M2wdokr-jcf68sooe3-179" value="13" style="shape=ellipse;fillColor=#000000;strokeColor=none;verticalAlign=middle;align=center;fontColor=#ffffff;fontStyle=1;whiteSpace=wrap;html=1;" vertex="1" parent="T_M2wdokr-jcf68sooe3-117">
          <mxGeometry x="0.6402" width="40" height="40" relative="1" as="geometry">
            <mxPoint x="-18" y="198" as="offset" />
          </mxGeometry>
        </mxCell>
        <mxCell id="T_M2wdokr-jcf68sooe3-180" value="14" style="text;verticalAlign=middle;align=center;fontColor=#4D4D4D;fontStyle=1;resizeWidth=1;whiteSpace=wrap;html=1;" vertex="1" parent="T_M2wdokr-jcf68sooe3-117">
          <mxGeometry x="0.7104" width="46" height="40" relative="1" as="geometry">
            <mxPoint x="2" y="198" as="offset" />
          </mxGeometry>
        </mxCell>
        <mxCell id="T_M2wdokr-jcf68sooe3-181" value="15" style="text;verticalAlign=middle;align=center;fontColor=#4D4D4D;fontStyle=1;resizeWidth=1;whiteSpace=wrap;html=1;" vertex="1" parent="T_M2wdokr-jcf68sooe3-117">
          <mxGeometry x="0.8506" width="49" height="40" relative="1" as="geometry">
            <mxPoint x="2" y="198" as="offset" />
          </mxGeometry>
        </mxCell>
        <mxCell id="T_M2wdokr-jcf68sooe3-188" value="22" style="text;verticalAlign=middle;align=center;fontColor=#4D4D4D;fontStyle=1;resizeWidth=1;whiteSpace=wrap;html=1;" vertex="1" parent="T_M2wdokr-jcf68sooe3-117">
          <mxGeometry x="0.8506" width="49" height="40" relative="1" as="geometry">
            <mxPoint x="2" y="238" as="offset" />
          </mxGeometry>
        </mxCell>
        <mxCell id="T_M2wdokr-jcf68sooe3-195" value="29" style="text;verticalAlign=middle;align=center;fontColor=#4D4D4D;fontStyle=1;resizeWidth=1;whiteSpace=wrap;html=1;" vertex="1" parent="T_M2wdokr-jcf68sooe3-117">
          <mxGeometry x="0.8506" width="49" height="40" relative="1" as="geometry">
            <mxPoint x="2" y="278" as="offset" />
          </mxGeometry>
        </mxCell>
        <mxCell id="T_M2wdokr-jcf68sooe3-194" value="28" style="text;verticalAlign=middle;align=center;fontColor=#4D4D4D;fontStyle=1;resizeWidth=1;whiteSpace=wrap;html=1;" vertex="1" parent="T_M2wdokr-jcf68sooe3-117">
          <mxGeometry x="0.7104" width="46" height="40" relative="1" as="geometry">
            <mxPoint x="2" y="278" as="offset" />
          </mxGeometry>
        </mxCell>
        <mxCell id="T_M2wdokr-jcf68sooe3-187" value="21" style="text;verticalAlign=middle;align=center;fontColor=#4D4D4D;fontStyle=1;resizeWidth=1;whiteSpace=wrap;html=1;" vertex="1" parent="T_M2wdokr-jcf68sooe3-117">
          <mxGeometry x="0.7104" width="46" height="40" relative="1" as="geometry">
            <mxPoint x="2" y="238" as="offset" />
          </mxGeometry>
        </mxCell>
        <mxCell id="T_M2wdokr-jcf68sooe3-186" value="20" style="text;verticalAlign=middle;align=center;fontColor=#4D4D4D;fontStyle=1;resizeWidth=1;whiteSpace=wrap;html=1;" vertex="1" parent="T_M2wdokr-jcf68sooe3-117">
          <mxGeometry x="0.5701" width="46" height="40" relative="1" as="geometry">
            <mxPoint x="2" y="238" as="offset" />
          </mxGeometry>
        </mxCell>
        <mxCell id="T_M2wdokr-jcf68sooe3-193" value="27" style="text;verticalAlign=middle;align=center;fontColor=#4D4D4D;fontStyle=1;resizeWidth=1;whiteSpace=wrap;html=1;" vertex="1" parent="T_M2wdokr-jcf68sooe3-117">
          <mxGeometry x="0.5701" width="46" height="40" relative="1" as="geometry">
            <mxPoint x="2" y="278" as="offset" />
          </mxGeometry>
        </mxCell>
        <mxCell id="T_M2wdokr-jcf68sooe3-185" value="19" style="text;verticalAlign=middle;align=center;fontColor=#4D4D4D;fontStyle=1;resizeWidth=1;whiteSpace=wrap;html=1;" vertex="1" parent="T_M2wdokr-jcf68sooe3-117">
          <mxGeometry x="0.4299" width="46" height="40" relative="1" as="geometry">
            <mxPoint x="2" y="238" as="offset" />
          </mxGeometry>
        </mxCell>
        <mxCell id="T_M2wdokr-jcf68sooe3-192" value="26" style="text;verticalAlign=middle;align=center;fontColor=#4D4D4D;fontStyle=1;resizeWidth=1;whiteSpace=wrap;html=1;" vertex="1" parent="T_M2wdokr-jcf68sooe3-117">
          <mxGeometry x="0.4299" width="46" height="40" relative="1" as="geometry">
            <mxPoint x="2" y="278" as="offset" />
          </mxGeometry>
        </mxCell>
        <mxCell id="T_M2wdokr-jcf68sooe3-184" value="18" style="text;verticalAlign=middle;align=center;fontColor=#4D4D4D;fontStyle=1;resizeWidth=1;whiteSpace=wrap;html=1;" vertex="1" parent="T_M2wdokr-jcf68sooe3-117">
          <mxGeometry x="0.2896" width="46" height="40" relative="1" as="geometry">
            <mxPoint x="2" y="238" as="offset" />
          </mxGeometry>
        </mxCell>
        <mxCell id="T_M2wdokr-jcf68sooe3-191" value="25" style="text;verticalAlign=middle;align=center;fontColor=#4D4D4D;fontStyle=1;resizeWidth=1;whiteSpace=wrap;html=1;" vertex="1" parent="T_M2wdokr-jcf68sooe3-117">
          <mxGeometry x="0.2896" width="46" height="40" relative="1" as="geometry">
            <mxPoint x="2" y="278" as="offset" />
          </mxGeometry>
        </mxCell>
        <mxCell id="T_M2wdokr-jcf68sooe3-190" value="24" style="text;verticalAlign=middle;align=center;fontColor=#4D4D4D;fontStyle=1;resizeWidth=1;whiteSpace=wrap;html=1;" vertex="1" parent="T_M2wdokr-jcf68sooe3-117">
          <mxGeometry x="0.1463" width="46" height="40" relative="1" as="geometry">
            <mxPoint x="2" y="278" as="offset" />
          </mxGeometry>
        </mxCell>
        <mxCell id="T_M2wdokr-jcf68sooe3-183" value="17" style="text;verticalAlign=middle;align=center;fontColor=#4D4D4D;fontStyle=1;resizeWidth=1;whiteSpace=wrap;html=1;" vertex="1" parent="T_M2wdokr-jcf68sooe3-117">
          <mxGeometry x="0.1463" width="46" height="40" relative="1" as="geometry">
            <mxPoint x="2" y="238" as="offset" />
          </mxGeometry>
        </mxCell>
        <mxCell id="T_M2wdokr-jcf68sooe3-182" value="16" style="text;verticalAlign=middle;align=center;fontColor=#4D4D4D;fontStyle=1;resizeWidth=1;whiteSpace=wrap;html=1;" vertex="1" parent="T_M2wdokr-jcf68sooe3-117">
          <mxGeometry width="49" height="40" relative="1" as="geometry">
            <mxPoint x="2" y="238" as="offset" />
          </mxGeometry>
        </mxCell>
        <mxCell id="T_M2wdokr-jcf68sooe3-189" value="23" style="text;verticalAlign=middle;align=center;fontColor=#4D4D4D;fontStyle=1;resizeWidth=1;whiteSpace=wrap;html=1;" vertex="1" parent="T_M2wdokr-jcf68sooe3-117">
          <mxGeometry width="49" height="40" relative="1" as="geometry">
            <mxPoint x="2" y="278" as="offset" />
          </mxGeometry>
        </mxCell>
        <mxCell id="T_M2wdokr-jcf68sooe3-196" value="30" style="text;verticalAlign=middle;align=center;fontColor=#4D4D4D;fontStyle=1;resizeWidth=1;whiteSpace=wrap;html=1;" vertex="1" parent="T_M2wdokr-jcf68sooe3-117">
          <mxGeometry width="49" height="40" relative="1" as="geometry">
            <mxPoint x="2" y="318" as="offset" />
          </mxGeometry>
        </mxCell>
        <mxCell id="T_M2wdokr-jcf68sooe3-200" value="" style="edgeStyle=none;curved=1;rounded=0;orthogonalLoop=1;jettySize=auto;html=1;fontSize=12;startSize=8;endSize=8;" edge="1" parent="1" source="T_M2wdokr-jcf68sooe3-115" target="T_M2wdokr-jcf68sooe3-168">
          <mxGeometry relative="1" as="geometry" />
        </mxCell>
        <mxCell id="T_M2wdokr-jcf68sooe3-201" value="Перехід на повний вид календарю" style="text;strokeColor=none;fillColor=none;html=1;align=center;verticalAlign=middle;whiteSpace=wrap;rounded=0;fontSize=16;" vertex="1" parent="1">
          <mxGeometry x="-228" y="-45" width="173" height="30" as="geometry" />
        </mxCell>
        <mxCell id="T_M2wdokr-jcf68sooe3-202" value="" style="dashed=0;shape=rect;fillColor=#ffffff;strokeColor=none;" vertex="1" parent="1">
          <mxGeometry x="425" y="-239" width="358" height="642" as="geometry" />
        </mxCell>
        <mxCell id="T_M2wdokr-jcf68sooe3-203" value="12:30" style="dashed=0;shape=rect;align=right;fillColor=#000000;strokeColor=none;fontColor=#FFFFFF;spacingRight=4;spacingTop=1;fontStyle=0;fontSize=13;resizeWidth=1;whiteSpace=wrap;html=1;" vertex="1" parent="T_M2wdokr-jcf68sooe3-202">
          <mxGeometry width="358" height="24" relative="1" as="geometry" />
        </mxCell>
        <mxCell id="T_M2wdokr-jcf68sooe3-204" value="" style="dashed=0;shape=mxgraph.gmdl.top_bar;strokeColor=none;" vertex="1" parent="T_M2wdokr-jcf68sooe3-203">
          <mxGeometry x="1" y="0.5" width="46" height="14" relative="1" as="geometry">
            <mxPoint x="-92" y="-7" as="offset" />
          </mxGeometry>
        </mxCell>
        <mxCell id="T_M2wdokr-jcf68sooe3-205" value="" style="dashed=0;shape=rect;strokeColor=none;fillColor=#000000;resizeWidth=1;" vertex="1" parent="T_M2wdokr-jcf68sooe3-202">
          <mxGeometry y="1" width="358" height="48" relative="1" as="geometry">
            <mxPoint y="-48" as="offset" />
          </mxGeometry>
        </mxCell>
        <mxCell id="T_M2wdokr-jcf68sooe3-206" value="" style="dashed=0;shape=mxgraph.gmdl.back;strokeColor=#ffffff;fillColor=#000000;strokeWidth=2;" vertex="1" parent="T_M2wdokr-jcf68sooe3-205">
          <mxGeometry x="0.25" y="0.5" width="14" height="14" relative="1" as="geometry">
            <mxPoint x="-7" y="-7" as="offset" />
          </mxGeometry>
        </mxCell>
        <mxCell id="T_M2wdokr-jcf68sooe3-207" value="" style="shape=ellipse;strokeColor=#ffffff;fillColor=#000000;strokeWidth=2;" vertex="1" parent="T_M2wdokr-jcf68sooe3-205">
          <mxGeometry x="0.5" y="0.5" width="14" height="14" relative="1" as="geometry">
            <mxPoint x="-7" y="-7" as="offset" />
          </mxGeometry>
        </mxCell>
        <mxCell id="T_M2wdokr-jcf68sooe3-208" value="" style="shape=rect;strokeColor=#ffffff;fillColor=#000000;strokeWidth=2;" vertex="1" parent="T_M2wdokr-jcf68sooe3-205">
          <mxGeometry x="0.75" y="0.5" width="14" height="14" relative="1" as="geometry">
            <mxPoint x="-7" y="-7" as="offset" />
          </mxGeometry>
        </mxCell>
        <mxCell id="T_M2wdokr-jcf68sooe3-209" value="Лягти спати о 22:00" style="dashed=0;shape=rect;fillColor=#ffffff;strokeColor=none;verticalLabelPosition=middle;align=left;verticalAlign=middle;fontSize=15;spacingLeft=72;whiteSpace=wrap;html=1;" vertex="1" parent="T_M2wdokr-jcf68sooe3-202">
          <mxGeometry x="1.96" y="417" width="356.27" height="56" as="geometry" />
        </mxCell>
        <mxCell id="T_M2wdokr-jcf68sooe3-210" value="" style="dashed=0;shape=mxgraph.gmdl.checkbox;strokeColor=#666666;fillColor=#000000;strokeWidth=2;" vertex="1" parent="T_M2wdokr-jcf68sooe3-209">
          <mxGeometry y="0.5" width="18" height="18" relative="1" as="geometry">
            <mxPoint x="16" y="-9" as="offset" />
          </mxGeometry>
        </mxCell>
        <mxCell id="T_M2wdokr-jcf68sooe3-305" value="" style="html=1;verticalLabelPosition=bottom;align=center;labelBackgroundColor=#ffffff;verticalAlign=top;strokeWidth=2;strokeColor=#CCCCCC;shadow=0;dashed=0;shape=mxgraph.ios7.icons.bell;" vertex="1" parent="T_M2wdokr-jcf68sooe3-209">
          <mxGeometry x="303.03999999999996" y="21.620000000000005" width="13.27" height="12.77" as="geometry" />
        </mxCell>
        <mxCell id="T_M2wdokr-jcf68sooe3-213" value="Пройти 10 тисяч рухів після роботи" style="dashed=0;shape=rect;fillColor=#ffffff;strokeColor=none;verticalLabelPosition=middle;align=left;verticalAlign=middle;fontSize=15;spacingLeft=72;whiteSpace=wrap;html=1;" vertex="1" parent="T_M2wdokr-jcf68sooe3-202">
          <mxGeometry x="1.96" y="473" width="354.54" height="56" as="geometry" />
        </mxCell>
        <mxCell id="T_M2wdokr-jcf68sooe3-214" value="" style="dashed=0;shape=mxgraph.gmdl.checkbox;strokeColor=#666666;fillColor=#000000;strokeWidth=2;" vertex="1" parent="T_M2wdokr-jcf68sooe3-213">
          <mxGeometry y="0.5" width="18" height="18" relative="1" as="geometry">
            <mxPoint x="16" y="-9" as="offset" />
          </mxGeometry>
        </mxCell>
        <mxCell id="T_M2wdokr-jcf68sooe3-215" value="" style="dashed=0;align=center;fontSize=12;shape=rect;fillColor=#ffffff;strokeColor=none;shadow=0;hachureGap=4;pointerEvents=0;fontFamily=Architects Daughter;fontSource=https%3A%2F%2Ffonts.googleapis.com%2Fcss%3Ffamily%3DArchitects%2BDaughter;" vertex="1" parent="T_M2wdokr-jcf68sooe3-202">
          <mxGeometry x="-1.04" y="547" width="359.04" height="48" as="geometry" />
        </mxCell>
        <mxCell id="T_M2wdokr-jcf68sooe3-216" value="Головна" style="dashed=0;html=1;shape=mxgraph.gmdl.calendar;fillColor=#000000;strokeColor=none;fontColor=#000000;verticalAlign=top;spacingLeft=0;fontSize=10;labelPosition=center;verticalLabelPosition=bottom;align=center;spacingBottom=0;spacingTop=-6;hachureGap=4;pointerEvents=0;fontFamily=Helvetica;aspect=fixed;shadow=0;sketch=0;" vertex="1" parent="T_M2wdokr-jcf68sooe3-215">
          <mxGeometry x="0.15" y="0.5" width="20" height="20" relative="1" as="geometry">
            <mxPoint x="-10" y="-15" as="offset" />
          </mxGeometry>
        </mxCell>
        <mxCell id="T_M2wdokr-jcf68sooe3-217" value="&lt;font color=&quot;#808080&quot;&gt;Щоденник&lt;/font&gt;" style="dashed=0;html=1;shape=mxgraph.gmdl.heart;fillColor=#808080;strokeColor=none;fontColor=#00796B;verticalAlign=top;spacingLeft=0;fontSize=10;labelPosition=center;verticalLabelPosition=bottom;align=center;spacingBottom=0;spacingTop=-5;hachureGap=4;pointerEvents=0;fontFamily=Helvetica;" vertex="1" parent="T_M2wdokr-jcf68sooe3-215">
          <mxGeometry x="0.5" y="0.5" width="20" height="18" relative="1" as="geometry">
            <mxPoint x="-10" y="-14" as="offset" />
          </mxGeometry>
        </mxCell>
        <mxCell id="T_M2wdokr-jcf68sooe3-218" value="Профіль" style="dashed=0;html=1;shape=mxgraph.gmdl.chat;fillColor=#808080;strokeColor=none;fontColor=#808080;verticalAlign=top;spacingLeft=0;fontSize=10;labelPosition=center;verticalLabelPosition=bottom;align=center;spacingBottom=0;spacingTop=-6;hachureGap=4;pointerEvents=0;fontFamily=Helvetica;aspect=fixed;shadow=0;sketch=0;gradientColor=none;fillStyle=solid;" vertex="1" parent="T_M2wdokr-jcf68sooe3-215">
          <mxGeometry x="0.85" y="0.5" width="20" height="20" relative="1" as="geometry">
            <mxPoint x="-10" y="-15" as="offset" />
          </mxGeometry>
        </mxCell>
        <mxCell id="T_M2wdokr-jcf68sooe3-219" value="" style="shape=ellipse;dashed=0;strokeColor=none;shadow=1;fontSize=13;align=center;verticalAlign=top;labelPosition=center;verticalLabelPosition=bottom;html=1;aspect=fixed;" vertex="1" parent="T_M2wdokr-jcf68sooe3-202">
          <mxGeometry x="289.23" y="486" width="40" height="40" as="geometry" />
        </mxCell>
        <mxCell id="T_M2wdokr-jcf68sooe3-220" value="" style="dashed=0;html=1;shape=mxgraph.gmdl.plus;strokeColor=#737373;strokeWidth=2;shadow=0;sketch=0;html=1;labelPosition=center;verticalLabelPosition=bottom;align=center;verticalAlign=top;" vertex="1" parent="T_M2wdokr-jcf68sooe3-219">
          <mxGeometry x="12" y="12" width="16" height="16" as="geometry" />
        </mxCell>
        <mxCell id="T_M2wdokr-jcf68sooe3-221" value="Звернути" style="text;strokeColor=none;fillColor=none;html=1;align=center;verticalAlign=middle;whiteSpace=wrap;rounded=0;fontSize=10;fontColor=#808080;" vertex="1" parent="T_M2wdokr-jcf68sooe3-202">
          <mxGeometry x="259.5" y="380" width="97" height="30" as="geometry" />
        </mxCell>
        <mxCell id="T_M2wdokr-jcf68sooe3-222" value="4/4 Зробленно" style="text;strokeColor=none;fillColor=none;html=1;align=center;verticalAlign=middle;whiteSpace=wrap;rounded=0;fontSize=10;fontColor=#808080;" vertex="1" parent="T_M2wdokr-jcf68sooe3-202">
          <mxGeometry x="1.9599999999999613" y="380" width="97" height="30" as="geometry" />
        </mxCell>
        <mxCell id="T_M2wdokr-jcf68sooe3-223" value="Травень 2024" style="text;verticalAlign=middle;fontColor=#4D4D4D;spacingTop=6;spacing=16;fontSize=13;align=center;fontStyle=1;resizeWidth=1;whiteSpace=wrap;html=1;" vertex="1" parent="T_M2wdokr-jcf68sooe3-202">
          <mxGeometry x="0.1463" width="232" height="40" relative="1" as="geometry">
            <mxPoint x="2" y="28" as="offset" />
          </mxGeometry>
        </mxCell>
        <mxCell id="T_M2wdokr-jcf68sooe3-224" value="&gt;" style="text;verticalAlign=middle;fontColor=#4D4D4D;spacingTop=6;spacing=16;fontSize=20;align=center;resizeWidth=1;" vertex="1" parent="T_M2wdokr-jcf68sooe3-202">
          <mxGeometry x="0.8537" width="48" height="40" relative="1" as="geometry">
            <mxPoint x="2" y="28" as="offset" />
          </mxGeometry>
        </mxCell>
        <mxCell id="T_M2wdokr-jcf68sooe3-225" value="&lt;" style="text;verticalAlign=middle;fontColor=#4D4D4D;spacingTop=6;spacing=16;fontSize=20;align=center;resizeWidth=1;" vertex="1" parent="T_M2wdokr-jcf68sooe3-202">
          <mxGeometry width="48" height="40" relative="1" as="geometry">
            <mxPoint x="2" y="28" as="offset" />
          </mxGeometry>
        </mxCell>
        <mxCell id="T_M2wdokr-jcf68sooe3-226" value="S" style="text;verticalAlign=middle;align=center;fontColor=#808080;resizeWidth=1;whiteSpace=wrap;html=1;" vertex="1" parent="T_M2wdokr-jcf68sooe3-202">
          <mxGeometry width="49" height="40" relative="1" as="geometry">
            <mxPoint x="2" y="78" as="offset" />
          </mxGeometry>
        </mxCell>
        <mxCell id="T_M2wdokr-jcf68sooe3-227" value="M" style="text;verticalAlign=middle;align=center;fontColor=#808080;resizeWidth=1;whiteSpace=wrap;html=1;" vertex="1" parent="T_M2wdokr-jcf68sooe3-202">
          <mxGeometry x="0.1463" width="46" height="40" relative="1" as="geometry">
            <mxPoint x="2" y="78" as="offset" />
          </mxGeometry>
        </mxCell>
        <mxCell id="T_M2wdokr-jcf68sooe3-228" value="T" style="text;verticalAlign=middle;align=center;fontColor=#808080;resizeWidth=1;whiteSpace=wrap;html=1;" vertex="1" parent="T_M2wdokr-jcf68sooe3-202">
          <mxGeometry x="0.2896" width="46" height="40" relative="1" as="geometry">
            <mxPoint x="2" y="78" as="offset" />
          </mxGeometry>
        </mxCell>
        <mxCell id="T_M2wdokr-jcf68sooe3-229" value="W" style="text;verticalAlign=middle;align=center;fontColor=#808080;resizeWidth=1;whiteSpace=wrap;html=1;" vertex="1" parent="T_M2wdokr-jcf68sooe3-202">
          <mxGeometry x="0.4299" width="46" height="40" relative="1" as="geometry">
            <mxPoint x="2" y="78" as="offset" />
          </mxGeometry>
        </mxCell>
        <mxCell id="T_M2wdokr-jcf68sooe3-230" value="T" style="text;verticalAlign=middle;align=center;fontColor=#808080;resizeWidth=1;whiteSpace=wrap;html=1;" vertex="1" parent="T_M2wdokr-jcf68sooe3-202">
          <mxGeometry x="0.5701" width="46" height="40" relative="1" as="geometry">
            <mxPoint x="2" y="78" as="offset" />
          </mxGeometry>
        </mxCell>
        <mxCell id="T_M2wdokr-jcf68sooe3-231" value="F" style="text;verticalAlign=middle;align=center;fontColor=#808080;resizeWidth=1;whiteSpace=wrap;html=1;" vertex="1" parent="T_M2wdokr-jcf68sooe3-202">
          <mxGeometry x="0.7104" width="46" height="40" relative="1" as="geometry">
            <mxPoint x="2" y="78" as="offset" />
          </mxGeometry>
        </mxCell>
        <mxCell id="T_M2wdokr-jcf68sooe3-232" value="S" style="text;verticalAlign=middle;align=center;fontColor=#808080;resizeWidth=1;whiteSpace=wrap;html=1;" vertex="1" parent="T_M2wdokr-jcf68sooe3-202">
          <mxGeometry x="0.8506" width="49" height="40" relative="1" as="geometry">
            <mxPoint x="2" y="78" as="offset" />
          </mxGeometry>
        </mxCell>
        <mxCell id="T_M2wdokr-jcf68sooe3-233" value="1" style="text;verticalAlign=middle;align=center;fontColor=#4D4D4D;fontStyle=1;resizeWidth=1;whiteSpace=wrap;html=1;" vertex="1" parent="T_M2wdokr-jcf68sooe3-202">
          <mxGeometry x="0.8506" width="49" height="40" relative="1" as="geometry">
            <mxPoint x="2" y="118" as="offset" />
          </mxGeometry>
        </mxCell>
        <mxCell id="T_M2wdokr-jcf68sooe3-234" value="8" style="text;verticalAlign=middle;align=center;fontColor=#4D4D4D;fontStyle=1;resizeWidth=1;whiteSpace=wrap;html=1;" vertex="1" parent="T_M2wdokr-jcf68sooe3-202">
          <mxGeometry x="0.8506" width="49" height="40" relative="1" as="geometry">
            <mxPoint x="2" y="158" as="offset" />
          </mxGeometry>
        </mxCell>
        <mxCell id="T_M2wdokr-jcf68sooe3-235" value="7" style="text;verticalAlign=middle;align=center;fontColor=#4d4d4d;fontStyle=1;resizeWidth=1;whiteSpace=wrap;html=1;" vertex="1" parent="T_M2wdokr-jcf68sooe3-202">
          <mxGeometry x="0.7104" width="46" height="40" relative="1" as="geometry">
            <mxPoint x="2" y="158" as="offset" />
          </mxGeometry>
        </mxCell>
        <mxCell id="T_M2wdokr-jcf68sooe3-236" value="6" style="text;verticalAlign=middle;align=center;fontColor=#4D4D4D;fontStyle=1;resizeWidth=1;whiteSpace=wrap;html=1;" vertex="1" parent="T_M2wdokr-jcf68sooe3-202">
          <mxGeometry x="0.5701" width="46" height="40" relative="1" as="geometry">
            <mxPoint x="2" y="158" as="offset" />
          </mxGeometry>
        </mxCell>
        <mxCell id="T_M2wdokr-jcf68sooe3-237" value="5" style="text;verticalAlign=middle;align=center;fontColor=#4D4D4D;fontStyle=1;resizeWidth=1;whiteSpace=wrap;html=1;" vertex="1" parent="T_M2wdokr-jcf68sooe3-202">
          <mxGeometry x="0.4299" width="46" height="40" relative="1" as="geometry">
            <mxPoint x="2" y="158" as="offset" />
          </mxGeometry>
        </mxCell>
        <mxCell id="T_M2wdokr-jcf68sooe3-238" value="4" style="text;verticalAlign=middle;align=center;fontColor=#4D4D4D;fontStyle=1;resizeWidth=1;whiteSpace=wrap;html=1;" vertex="1" parent="T_M2wdokr-jcf68sooe3-202">
          <mxGeometry x="0.2896" width="46" height="40" relative="1" as="geometry">
            <mxPoint x="2" y="158" as="offset" />
          </mxGeometry>
        </mxCell>
        <mxCell id="T_M2wdokr-jcf68sooe3-239" value="3" style="text;verticalAlign=middle;align=center;fontColor=#4D4D4D;fontStyle=1;resizeWidth=1;whiteSpace=wrap;html=1;" vertex="1" parent="T_M2wdokr-jcf68sooe3-202">
          <mxGeometry x="0.1463" width="46" height="40" relative="1" as="geometry">
            <mxPoint x="2" y="158" as="offset" />
          </mxGeometry>
        </mxCell>
        <mxCell id="T_M2wdokr-jcf68sooe3-240" value="2" style="text;verticalAlign=middle;align=center;fontColor=#4D4D4D;fontStyle=1;resizeWidth=1;whiteSpace=wrap;html=1;" vertex="1" parent="T_M2wdokr-jcf68sooe3-202">
          <mxGeometry width="49" height="40" relative="1" as="geometry">
            <mxPoint x="2" y="158" as="offset" />
          </mxGeometry>
        </mxCell>
        <mxCell id="T_M2wdokr-jcf68sooe3-241" value="9" style="text;verticalAlign=middle;align=center;fontColor=#4D4D4D;fontStyle=1;resizeWidth=1;whiteSpace=wrap;html=1;" vertex="1" parent="T_M2wdokr-jcf68sooe3-202">
          <mxGeometry width="49" height="40" relative="1" as="geometry">
            <mxPoint x="2" y="198" as="offset" />
          </mxGeometry>
        </mxCell>
        <mxCell id="T_M2wdokr-jcf68sooe3-242" value="10" style="text;verticalAlign=middle;align=center;fontColor=#4D4D4D;fontStyle=1;resizeWidth=1;whiteSpace=wrap;html=1;" vertex="1" parent="T_M2wdokr-jcf68sooe3-202">
          <mxGeometry x="0.1463" width="46" height="40" relative="1" as="geometry">
            <mxPoint x="2" y="198" as="offset" />
          </mxGeometry>
        </mxCell>
        <mxCell id="T_M2wdokr-jcf68sooe3-243" value="11" style="text;verticalAlign=middle;align=center;fontColor=#4D4D4D;fontStyle=1;resizeWidth=1;whiteSpace=wrap;html=1;" vertex="1" parent="T_M2wdokr-jcf68sooe3-202">
          <mxGeometry x="0.2896" width="46" height="40" relative="1" as="geometry">
            <mxPoint x="2" y="198" as="offset" />
          </mxGeometry>
        </mxCell>
        <mxCell id="T_M2wdokr-jcf68sooe3-244" value="12" style="text;verticalAlign=middle;align=center;fontColor=#4D4D4D;fontStyle=1;resizeWidth=1;whiteSpace=wrap;html=1;" vertex="1" parent="T_M2wdokr-jcf68sooe3-202">
          <mxGeometry x="0.4299" width="46" height="40" relative="1" as="geometry">
            <mxPoint x="2" y="198" as="offset" />
          </mxGeometry>
        </mxCell>
        <mxCell id="T_M2wdokr-jcf68sooe3-246" value="14" style="text;verticalAlign=middle;align=center;fontColor=#4D4D4D;fontStyle=1;resizeWidth=1;whiteSpace=wrap;html=1;" vertex="1" parent="T_M2wdokr-jcf68sooe3-202">
          <mxGeometry x="0.7104" width="46" height="40" relative="1" as="geometry">
            <mxPoint x="2" y="198" as="offset" />
          </mxGeometry>
        </mxCell>
        <mxCell id="T_M2wdokr-jcf68sooe3-247" value="15" style="text;verticalAlign=middle;align=center;fontColor=#4D4D4D;fontStyle=1;resizeWidth=1;whiteSpace=wrap;html=1;" vertex="1" parent="T_M2wdokr-jcf68sooe3-202">
          <mxGeometry x="0.8506" width="49" height="40" relative="1" as="geometry">
            <mxPoint x="2" y="198" as="offset" />
          </mxGeometry>
        </mxCell>
        <mxCell id="T_M2wdokr-jcf68sooe3-248" value="22" style="text;verticalAlign=middle;align=center;fontColor=#4D4D4D;fontStyle=1;resizeWidth=1;whiteSpace=wrap;html=1;" vertex="1" parent="T_M2wdokr-jcf68sooe3-202">
          <mxGeometry x="0.8506" width="49" height="40" relative="1" as="geometry">
            <mxPoint x="2" y="238" as="offset" />
          </mxGeometry>
        </mxCell>
        <mxCell id="T_M2wdokr-jcf68sooe3-249" value="29" style="text;verticalAlign=middle;align=center;fontColor=#4D4D4D;fontStyle=1;resizeWidth=1;whiteSpace=wrap;html=1;" vertex="1" parent="T_M2wdokr-jcf68sooe3-202">
          <mxGeometry x="0.8506" width="49" height="40" relative="1" as="geometry">
            <mxPoint x="2" y="278" as="offset" />
          </mxGeometry>
        </mxCell>
        <mxCell id="T_M2wdokr-jcf68sooe3-250" value="28" style="text;verticalAlign=middle;align=center;fontColor=#4D4D4D;fontStyle=1;resizeWidth=1;whiteSpace=wrap;html=1;" vertex="1" parent="T_M2wdokr-jcf68sooe3-202">
          <mxGeometry x="0.7104" width="46" height="40" relative="1" as="geometry">
            <mxPoint x="2" y="278" as="offset" />
          </mxGeometry>
        </mxCell>
        <mxCell id="T_M2wdokr-jcf68sooe3-251" value="21" style="text;verticalAlign=middle;align=center;fontColor=#4D4D4D;fontStyle=1;resizeWidth=1;whiteSpace=wrap;html=1;" vertex="1" parent="T_M2wdokr-jcf68sooe3-202">
          <mxGeometry x="0.7104" width="46" height="40" relative="1" as="geometry">
            <mxPoint x="2" y="238" as="offset" />
          </mxGeometry>
        </mxCell>
        <mxCell id="T_M2wdokr-jcf68sooe3-252" value="20" style="text;verticalAlign=middle;align=center;fontColor=#4D4D4D;fontStyle=1;resizeWidth=1;whiteSpace=wrap;html=1;" vertex="1" parent="T_M2wdokr-jcf68sooe3-202">
          <mxGeometry x="0.5701" width="46" height="40" relative="1" as="geometry">
            <mxPoint x="2" y="238" as="offset" />
          </mxGeometry>
        </mxCell>
        <mxCell id="T_M2wdokr-jcf68sooe3-253" value="27" style="text;verticalAlign=middle;align=center;fontColor=#4D4D4D;fontStyle=1;resizeWidth=1;whiteSpace=wrap;html=1;" vertex="1" parent="T_M2wdokr-jcf68sooe3-202">
          <mxGeometry x="0.5701" width="46" height="40" relative="1" as="geometry">
            <mxPoint x="2" y="278" as="offset" />
          </mxGeometry>
        </mxCell>
        <mxCell id="T_M2wdokr-jcf68sooe3-254" value="19" style="text;verticalAlign=middle;align=center;fontColor=#4D4D4D;fontStyle=1;resizeWidth=1;whiteSpace=wrap;html=1;" vertex="1" parent="T_M2wdokr-jcf68sooe3-202">
          <mxGeometry x="0.4299" width="46" height="40" relative="1" as="geometry">
            <mxPoint x="2" y="238" as="offset" />
          </mxGeometry>
        </mxCell>
        <mxCell id="T_M2wdokr-jcf68sooe3-255" value="26" style="text;verticalAlign=middle;align=center;fontColor=#4D4D4D;fontStyle=1;resizeWidth=1;whiteSpace=wrap;html=1;" vertex="1" parent="T_M2wdokr-jcf68sooe3-202">
          <mxGeometry x="0.4299" width="46" height="40" relative="1" as="geometry">
            <mxPoint x="2" y="278" as="offset" />
          </mxGeometry>
        </mxCell>
        <mxCell id="T_M2wdokr-jcf68sooe3-256" value="18" style="text;verticalAlign=middle;align=center;fontColor=#4D4D4D;fontStyle=1;resizeWidth=1;whiteSpace=wrap;html=1;" vertex="1" parent="T_M2wdokr-jcf68sooe3-202">
          <mxGeometry x="0.2896" width="46" height="40" relative="1" as="geometry">
            <mxPoint x="2" y="238" as="offset" />
          </mxGeometry>
        </mxCell>
        <mxCell id="T_M2wdokr-jcf68sooe3-257" value="25" style="text;verticalAlign=middle;align=center;fontColor=#4D4D4D;fontStyle=1;resizeWidth=1;whiteSpace=wrap;html=1;" vertex="1" parent="T_M2wdokr-jcf68sooe3-202">
          <mxGeometry x="0.2896" width="46" height="40" relative="1" as="geometry">
            <mxPoint x="2" y="278" as="offset" />
          </mxGeometry>
        </mxCell>
        <mxCell id="T_M2wdokr-jcf68sooe3-258" value="24" style="text;verticalAlign=middle;align=center;fontColor=#4D4D4D;fontStyle=1;resizeWidth=1;whiteSpace=wrap;html=1;" vertex="1" parent="T_M2wdokr-jcf68sooe3-202">
          <mxGeometry x="0.1463" width="46" height="40" relative="1" as="geometry">
            <mxPoint x="2" y="278" as="offset" />
          </mxGeometry>
        </mxCell>
        <mxCell id="T_M2wdokr-jcf68sooe3-259" value="17" style="text;verticalAlign=middle;align=center;fontColor=#4D4D4D;fontStyle=1;resizeWidth=1;whiteSpace=wrap;html=1;" vertex="1" parent="T_M2wdokr-jcf68sooe3-202">
          <mxGeometry x="0.1463" width="46" height="40" relative="1" as="geometry">
            <mxPoint x="2" y="238" as="offset" />
          </mxGeometry>
        </mxCell>
        <mxCell id="T_M2wdokr-jcf68sooe3-260" value="16" style="text;verticalAlign=middle;align=center;fontColor=#4D4D4D;fontStyle=1;resizeWidth=1;whiteSpace=wrap;html=1;" vertex="1" parent="T_M2wdokr-jcf68sooe3-202">
          <mxGeometry width="49" height="40" relative="1" as="geometry">
            <mxPoint x="2" y="238" as="offset" />
          </mxGeometry>
        </mxCell>
        <mxCell id="T_M2wdokr-jcf68sooe3-261" value="23" style="text;verticalAlign=middle;align=center;fontColor=#4D4D4D;fontStyle=1;resizeWidth=1;whiteSpace=wrap;html=1;" vertex="1" parent="T_M2wdokr-jcf68sooe3-202">
          <mxGeometry width="49" height="40" relative="1" as="geometry">
            <mxPoint x="2" y="278" as="offset" />
          </mxGeometry>
        </mxCell>
        <mxCell id="T_M2wdokr-jcf68sooe3-262" value="30" style="text;verticalAlign=middle;align=center;fontColor=#4D4D4D;fontStyle=1;resizeWidth=1;whiteSpace=wrap;html=1;" vertex="1" parent="T_M2wdokr-jcf68sooe3-202">
          <mxGeometry width="49" height="40" relative="1" as="geometry">
            <mxPoint x="2" y="318" as="offset" />
          </mxGeometry>
        </mxCell>
        <mxCell id="T_M2wdokr-jcf68sooe3-263" value="10" style="shape=ellipse;fillColor=#000000;strokeColor=none;verticalAlign=middle;align=center;fontColor=#ffffff;fontStyle=1;whiteSpace=wrap;html=1;" vertex="1" parent="T_M2wdokr-jcf68sooe3-202">
          <mxGeometry x="56.00160000000005" y="198" width="40" height="40" as="geometry" />
        </mxCell>
        <mxCell id="T_M2wdokr-jcf68sooe3-264" value="&lt;font style=&quot;font-size: 13px;&quot; color=&quot;#000000&quot;&gt;13&lt;/font&gt;" style="text;verticalAlign=middle;align=center;fontColor=#4D4D4D;fontStyle=1;resizeWidth=1;whiteSpace=wrap;html=1;" vertex="1" parent="T_M2wdokr-jcf68sooe3-202">
          <mxGeometry x="205.00319999999977" y="198" width="46" height="40" as="geometry" />
        </mxCell>
        <mxCell id="T_M2wdokr-jcf68sooe3-266" value="я" style="dashed=0;shape=rect;fillColor=#ffffff;strokeColor=none;" vertex="1" parent="1">
          <mxGeometry x="-612" y="524" width="358" height="642" as="geometry" />
        </mxCell>
        <mxCell id="T_M2wdokr-jcf68sooe3-267" value="12:30" style="dashed=0;shape=rect;align=right;fillColor=#000000;strokeColor=none;fontColor=#FFFFFF;spacingRight=4;spacingTop=1;fontStyle=0;fontSize=13;resizeWidth=1;whiteSpace=wrap;html=1;" vertex="1" parent="T_M2wdokr-jcf68sooe3-266">
          <mxGeometry width="358" height="24" relative="1" as="geometry" />
        </mxCell>
        <mxCell id="T_M2wdokr-jcf68sooe3-268" value="" style="dashed=0;shape=mxgraph.gmdl.top_bar;strokeColor=none;" vertex="1" parent="T_M2wdokr-jcf68sooe3-267">
          <mxGeometry x="1" y="0.5" width="46" height="14" relative="1" as="geometry">
            <mxPoint x="-92" y="-7" as="offset" />
          </mxGeometry>
        </mxCell>
        <mxCell id="T_M2wdokr-jcf68sooe3-269" value="" style="dashed=0;shape=rect;strokeColor=none;fillColor=#000000;resizeWidth=1;" vertex="1" parent="T_M2wdokr-jcf68sooe3-266">
          <mxGeometry y="1" width="358" height="48" relative="1" as="geometry">
            <mxPoint y="-48" as="offset" />
          </mxGeometry>
        </mxCell>
        <mxCell id="T_M2wdokr-jcf68sooe3-270" value="" style="dashed=0;shape=mxgraph.gmdl.back;strokeColor=#ffffff;fillColor=#000000;strokeWidth=2;" vertex="1" parent="T_M2wdokr-jcf68sooe3-269">
          <mxGeometry x="0.25" y="0.5" width="14" height="14" relative="1" as="geometry">
            <mxPoint x="-7" y="-7" as="offset" />
          </mxGeometry>
        </mxCell>
        <mxCell id="T_M2wdokr-jcf68sooe3-271" value="" style="shape=ellipse;strokeColor=#ffffff;fillColor=#000000;strokeWidth=2;" vertex="1" parent="T_M2wdokr-jcf68sooe3-269">
          <mxGeometry x="0.5" y="0.5" width="14" height="14" relative="1" as="geometry">
            <mxPoint x="-7" y="-7" as="offset" />
          </mxGeometry>
        </mxCell>
        <mxCell id="T_M2wdokr-jcf68sooe3-272" value="" style="shape=rect;strokeColor=#ffffff;fillColor=#000000;strokeWidth=2;" vertex="1" parent="T_M2wdokr-jcf68sooe3-269">
          <mxGeometry x="0.75" y="0.5" width="14" height="14" relative="1" as="geometry">
            <mxPoint x="-7" y="-7" as="offset" />
          </mxGeometry>
        </mxCell>
        <mxCell id="T_M2wdokr-jcf68sooe3-273" value="Лягти спати о 22:00" style="dashed=0;shape=rect;fillColor=#ffffff;strokeColor=none;verticalLabelPosition=middle;align=left;verticalAlign=middle;fontSize=15;spacingLeft=72;whiteSpace=wrap;html=1;" vertex="1" parent="T_M2wdokr-jcf68sooe3-266">
          <mxGeometry x="1.73" y="132" width="356.27" height="56" as="geometry" />
        </mxCell>
        <mxCell id="T_M2wdokr-jcf68sooe3-274" value="" style="dashed=0;shape=mxgraph.gmdl.checkbox;strokeColor=#666666;fillColor=none;strokeWidth=2;" vertex="1" parent="T_M2wdokr-jcf68sooe3-273">
          <mxGeometry y="0.5" width="18" height="18" relative="1" as="geometry">
            <mxPoint x="16" y="-9" as="offset" />
          </mxGeometry>
        </mxCell>
        <mxCell id="T_M2wdokr-jcf68sooe3-275" value="Медитація" style="dashed=0;shape=rect;fillColor=#ffffff;strokeColor=none;verticalLabelPosition=middle;align=left;verticalAlign=middle;fontSize=15;spacingLeft=72;whiteSpace=wrap;html=1;" vertex="1" parent="T_M2wdokr-jcf68sooe3-266">
          <mxGeometry x="1.7299999999999796" y="244" width="289" height="56" as="geometry" />
        </mxCell>
        <mxCell id="T_M2wdokr-jcf68sooe3-276" value="" style="dashed=0;shape=mxgraph.gmdl.checkbox;strokeColor=#666666;fillColor=#030303;strokeWidth=2;" vertex="1" parent="T_M2wdokr-jcf68sooe3-275">
          <mxGeometry y="0.5" width="18" height="18" relative="1" as="geometry">
            <mxPoint x="16" y="-9" as="offset" />
          </mxGeometry>
        </mxCell>
        <mxCell id="T_M2wdokr-jcf68sooe3-277" value="Руханка зранку 10 хвилин" style="dashed=0;shape=rect;fillColor=#ffffff;strokeColor=none;verticalLabelPosition=middle;align=left;verticalAlign=middle;fontSize=15;spacingLeft=72;whiteSpace=wrap;html=1;" vertex="1" parent="T_M2wdokr-jcf68sooe3-266">
          <mxGeometry x="2.2299999999999796" y="300" width="287" height="56" as="geometry" />
        </mxCell>
        <mxCell id="T_M2wdokr-jcf68sooe3-278" value="" style="dashed=0;shape=mxgraph.gmdl.checkbox;strokeColor=#666666;fillColor=#000000;strokeWidth=2;" vertex="1" parent="T_M2wdokr-jcf68sooe3-277">
          <mxGeometry y="0.5" width="18" height="18" relative="1" as="geometry">
            <mxPoint x="16" y="-9" as="offset" />
          </mxGeometry>
        </mxCell>
        <mxCell id="T_M2wdokr-jcf68sooe3-279" value="Пройти 10 тисяч рухів після роботи" style="dashed=0;shape=rect;fillColor=#ffffff;strokeColor=none;verticalLabelPosition=middle;align=left;verticalAlign=middle;fontSize=15;spacingLeft=72;whiteSpace=wrap;html=1;" vertex="1" parent="T_M2wdokr-jcf68sooe3-266">
          <mxGeometry x="1.73" y="188" width="354.54" height="56" as="geometry" />
        </mxCell>
        <mxCell id="T_M2wdokr-jcf68sooe3-280" value="" style="dashed=0;shape=mxgraph.gmdl.checkbox;strokeColor=#666666;fillColor=none;strokeWidth=2;" vertex="1" parent="T_M2wdokr-jcf68sooe3-279">
          <mxGeometry y="0.5" width="18" height="18" relative="1" as="geometry">
            <mxPoint x="16" y="-9" as="offset" />
          </mxGeometry>
        </mxCell>
        <mxCell id="T_M2wdokr-jcf68sooe3-281" value="" style="dashed=0;align=center;fontSize=12;shape=rect;fillColor=#ffffff;strokeColor=none;shadow=0;hachureGap=4;pointerEvents=0;fontFamily=Architects Daughter;fontSource=https%3A%2F%2Ffonts.googleapis.com%2Fcss%3Ffamily%3DArchitects%2BDaughter;" vertex="1" parent="T_M2wdokr-jcf68sooe3-266">
          <mxGeometry x="-1.04" y="547" width="359.04" height="48" as="geometry" />
        </mxCell>
        <mxCell id="T_M2wdokr-jcf68sooe3-282" value="&lt;font color=&quot;#000000&quot;&gt;Головна&lt;/font&gt;" style="dashed=0;html=1;shape=mxgraph.gmdl.calendar;fillColor=#000000;strokeColor=none;fontColor=#808080;verticalAlign=top;spacingLeft=0;fontSize=10;labelPosition=center;verticalLabelPosition=bottom;align=center;spacingBottom=0;spacingTop=-6;hachureGap=4;pointerEvents=0;fontFamily=Helvetica;aspect=fixed;shadow=0;sketch=0;" vertex="1" parent="T_M2wdokr-jcf68sooe3-281">
          <mxGeometry x="0.15" y="0.5" width="20" height="20" relative="1" as="geometry">
            <mxPoint x="-10" y="-15" as="offset" />
          </mxGeometry>
        </mxCell>
        <mxCell id="T_M2wdokr-jcf68sooe3-283" value="&lt;font color=&quot;#808080&quot;&gt;Щоденник&lt;/font&gt;" style="dashed=0;html=1;shape=mxgraph.gmdl.heart;fillColor=#808080;strokeColor=none;fontColor=#00796B;verticalAlign=top;spacingLeft=0;fontSize=10;labelPosition=center;verticalLabelPosition=bottom;align=center;spacingBottom=0;spacingTop=-5;hachureGap=4;pointerEvents=0;fontFamily=Helvetica;" vertex="1" parent="T_M2wdokr-jcf68sooe3-281">
          <mxGeometry x="0.5" y="0.5" width="20" height="18" relative="1" as="geometry">
            <mxPoint x="-10" y="-14" as="offset" />
          </mxGeometry>
        </mxCell>
        <mxCell id="T_M2wdokr-jcf68sooe3-284" value="Профіль" style="dashed=0;html=1;shape=mxgraph.gmdl.chat;fillColor=#808080;strokeColor=none;fontColor=#808080;verticalAlign=top;spacingLeft=0;fontSize=10;labelPosition=center;verticalLabelPosition=bottom;align=center;spacingBottom=0;spacingTop=-6;hachureGap=4;pointerEvents=0;fontFamily=Helvetica;aspect=fixed;shadow=0;sketch=0;gradientColor=none;fillStyle=solid;" vertex="1" parent="T_M2wdokr-jcf68sooe3-281">
          <mxGeometry x="0.85" y="0.5" width="20" height="20" relative="1" as="geometry">
            <mxPoint x="-10" y="-15" as="offset" />
          </mxGeometry>
        </mxCell>
        <mxCell id="T_M2wdokr-jcf68sooe3-285" value="S" style="text;verticalAlign=middle;align=center;fontColor=#808080;resizeWidth=1;whiteSpace=wrap;html=1;" vertex="1" parent="T_M2wdokr-jcf68sooe3-266">
          <mxGeometry width="49" height="40" relative="1" as="geometry">
            <mxPoint x="2" y="30" as="offset" />
          </mxGeometry>
        </mxCell>
        <mxCell id="T_M2wdokr-jcf68sooe3-286" value="M" style="text;verticalAlign=middle;align=center;fontColor=#808080;resizeWidth=1;whiteSpace=wrap;html=1;" vertex="1" parent="T_M2wdokr-jcf68sooe3-266">
          <mxGeometry x="0.1463" width="46" height="40" relative="1" as="geometry">
            <mxPoint x="2" y="30" as="offset" />
          </mxGeometry>
        </mxCell>
        <mxCell id="T_M2wdokr-jcf68sooe3-287" value="T" style="text;verticalAlign=middle;align=center;fontColor=#808080;resizeWidth=1;whiteSpace=wrap;html=1;" vertex="1" parent="T_M2wdokr-jcf68sooe3-266">
          <mxGeometry x="0.2896" width="46" height="40" relative="1" as="geometry">
            <mxPoint x="2" y="30" as="offset" />
          </mxGeometry>
        </mxCell>
        <mxCell id="T_M2wdokr-jcf68sooe3-288" value="W" style="text;verticalAlign=middle;align=center;fontColor=#808080;resizeWidth=1;whiteSpace=wrap;html=1;" vertex="1" parent="T_M2wdokr-jcf68sooe3-266">
          <mxGeometry x="0.4299" width="45.57" height="39.63" relative="1" as="geometry">
            <mxPoint x="2.0000999999999998" y="30" as="offset" />
          </mxGeometry>
        </mxCell>
        <mxCell id="T_M2wdokr-jcf68sooe3-289" value="T" style="text;verticalAlign=middle;align=center;fontColor=#808080;resizeWidth=1;whiteSpace=wrap;html=1;" vertex="1" parent="T_M2wdokr-jcf68sooe3-266">
          <mxGeometry x="0.5701" width="46" height="40" relative="1" as="geometry">
            <mxPoint x="2" y="30" as="offset" />
          </mxGeometry>
        </mxCell>
        <mxCell id="T_M2wdokr-jcf68sooe3-290" value="F" style="text;verticalAlign=middle;align=center;fontColor=#808080;resizeWidth=1;whiteSpace=wrap;html=1;" vertex="1" parent="T_M2wdokr-jcf68sooe3-266">
          <mxGeometry x="0.7104" width="46" height="40" relative="1" as="geometry">
            <mxPoint x="2" y="30" as="offset" />
          </mxGeometry>
        </mxCell>
        <mxCell id="T_M2wdokr-jcf68sooe3-291" value="S" style="text;verticalAlign=middle;align=center;fontColor=#808080;resizeWidth=1;whiteSpace=wrap;html=1;" vertex="1" parent="T_M2wdokr-jcf68sooe3-266">
          <mxGeometry x="0.8506" width="49" height="40" relative="1" as="geometry">
            <mxPoint x="2" y="30" as="offset" />
          </mxGeometry>
        </mxCell>
        <mxCell id="T_M2wdokr-jcf68sooe3-292" value="9" style="text;verticalAlign=middle;align=center;fontColor=#808080;fontStyle=1;resizeWidth=1;whiteSpace=wrap;html=1;" vertex="1" parent="T_M2wdokr-jcf68sooe3-266">
          <mxGeometry width="49" height="40" relative="1" as="geometry">
            <mxPoint y="64" as="offset" />
          </mxGeometry>
        </mxCell>
        <mxCell id="T_M2wdokr-jcf68sooe3-293" value="10" style="text;verticalAlign=middle;align=center;fontColor=#808080;fontStyle=1;resizeWidth=1;whiteSpace=wrap;html=1;" vertex="1" parent="T_M2wdokr-jcf68sooe3-266">
          <mxGeometry x="0.1463" width="46" height="40" relative="1" as="geometry">
            <mxPoint y="64" as="offset" />
          </mxGeometry>
        </mxCell>
        <mxCell id="T_M2wdokr-jcf68sooe3-294" value="11" style="text;verticalAlign=middle;align=center;fontColor=#808080;fontStyle=1;resizeWidth=1;whiteSpace=wrap;html=1;" vertex="1" parent="T_M2wdokr-jcf68sooe3-266">
          <mxGeometry x="0.2896" width="46" height="40" relative="1" as="geometry">
            <mxPoint y="64" as="offset" />
          </mxGeometry>
        </mxCell>
        <mxCell id="T_M2wdokr-jcf68sooe3-295" value="12" style="text;verticalAlign=middle;align=center;fontColor=#808080;fontStyle=1;resizeWidth=1;whiteSpace=wrap;html=1;" vertex="1" parent="T_M2wdokr-jcf68sooe3-266">
          <mxGeometry x="0.4299" width="46" height="40" relative="1" as="geometry">
            <mxPoint y="64" as="offset" />
          </mxGeometry>
        </mxCell>
        <mxCell id="T_M2wdokr-jcf68sooe3-296" value="14" style="text;verticalAlign=middle;align=center;fontColor=#4D4D4D;fontStyle=1;resizeWidth=1;whiteSpace=wrap;html=1;" vertex="1" parent="T_M2wdokr-jcf68sooe3-266">
          <mxGeometry x="0.7104" width="46" height="40" relative="1" as="geometry">
            <mxPoint y="64" as="offset" />
          </mxGeometry>
        </mxCell>
        <mxCell id="T_M2wdokr-jcf68sooe3-297" value="13" style="shape=ellipse;fillColor=#000000;strokeColor=none;verticalAlign=middle;align=center;fontColor=#ffffff;fontStyle=1;whiteSpace=wrap;html=1;" vertex="1" parent="T_M2wdokr-jcf68sooe3-266">
          <mxGeometry x="0.6402" width="40" height="40" relative="1" as="geometry">
            <mxPoint x="-20" y="64" as="offset" />
          </mxGeometry>
        </mxCell>
        <mxCell id="T_M2wdokr-jcf68sooe3-298" value="15" style="text;verticalAlign=middle;align=center;fontColor=#4D4D4D;fontStyle=1;resizeWidth=1;whiteSpace=wrap;html=1;" vertex="1" parent="T_M2wdokr-jcf68sooe3-266">
          <mxGeometry x="0.8506" width="49" height="40" relative="1" as="geometry">
            <mxPoint y="64" as="offset" />
          </mxGeometry>
        </mxCell>
        <mxCell id="T_M2wdokr-jcf68sooe3-301" value="Развернути" style="text;strokeColor=none;fillColor=none;html=1;align=center;verticalAlign=middle;whiteSpace=wrap;rounded=0;fontSize=10;fontColor=#808080;" vertex="1" parent="T_M2wdokr-jcf68sooe3-266">
          <mxGeometry x="259.27" y="105" width="96.73" height="30" as="geometry" />
        </mxCell>
        <mxCell id="T_M2wdokr-jcf68sooe3-302" value="2/4 Зробленно" style="text;strokeColor=none;fillColor=none;html=1;align=center;verticalAlign=middle;whiteSpace=wrap;rounded=0;fontSize=10;fontColor=#808080;" vertex="1" parent="T_M2wdokr-jcf68sooe3-266">
          <mxGeometry x="1.7299999999999613" y="105" width="97" height="30" as="geometry" />
        </mxCell>
        <mxCell id="T_M2wdokr-jcf68sooe3-310" value="" style="shape=ellipse;strokeColor=none;fillColor=#000000;shadow=1;gradientColor=none;sketch=0;hachureGap=4;pointerEvents=0;fontFamily=Architects Daughter;fontSource=https%3A%2F%2Ffonts.googleapis.com%2Fcss%3Ffamily%3DArchitects%2BDaughter;fontSize=20;" vertex="1" parent="T_M2wdokr-jcf68sooe3-266">
          <mxGeometry x="279.63" y="478" width="56" height="56" as="geometry" />
        </mxCell>
        <mxCell id="T_M2wdokr-jcf68sooe3-311" value="" style="dashed=0;html=1;shape=mxgraph.gmdl.x;strokeColor=#ffffff;strokeWidth=2;sketch=0;hachureGap=4;pointerEvents=0;fontFamily=Architects Daughter;fontSource=https%3A%2F%2Ffonts.googleapis.com%2Fcss%3Ffamily%3DArchitects%2BDaughter;fontSize=20;" vertex="1" parent="T_M2wdokr-jcf68sooe3-310">
          <mxGeometry x="0.5" y="0.5" width="16" height="16" relative="1" as="geometry">
            <mxPoint x="-8" y="-8" as="offset" />
          </mxGeometry>
        </mxCell>
        <mxCell id="T_M2wdokr-jcf68sooe3-312" value="" style="shape=ellipse;dashed=0;strokeColor=none;shadow=1;fontSize=13;align=center;verticalAlign=top;labelPosition=center;verticalLabelPosition=bottom;html=1;aspect=fixed;" vertex="1" parent="T_M2wdokr-jcf68sooe3-266">
          <mxGeometry x="292.12" y="434.77" width="34.23" height="34.23" as="geometry" />
        </mxCell>
        <mxCell id="T_M2wdokr-jcf68sooe3-313" value="" style="dashed=0;html=1;shape=mxgraph.gmdl.edit;strokeColor=none;fillColor=#737373;shadow=0;sketch=0;html=1;labelPosition=center;verticalLabelPosition=bottom;align=center;verticalAlign=top;" vertex="1" parent="T_M2wdokr-jcf68sooe3-312">
          <mxGeometry x="11.002500000000001" y="11.002500000000001" width="12.225" height="12.225" as="geometry" />
        </mxCell>
        <mxCell id="T_M2wdokr-jcf68sooe3-316" value="" style="shape=ellipse;dashed=0;strokeColor=none;shadow=1;fontSize=13;align=center;verticalAlign=top;labelPosition=center;verticalLabelPosition=bottom;html=1;aspect=fixed;" vertex="1" parent="T_M2wdokr-jcf68sooe3-266">
          <mxGeometry x="293.23" y="392.12" width="32" height="32" as="geometry" />
        </mxCell>
        <mxCell id="T_M2wdokr-jcf68sooe3-317" value="" style="dashed=0;html=1;shape=mxgraph.gmdl.plus;strokeColor=#737373;strokeWidth=2;shadow=0;sketch=0;html=1;labelPosition=center;verticalLabelPosition=bottom;align=center;verticalAlign=top;" vertex="1" parent="T_M2wdokr-jcf68sooe3-316">
          <mxGeometry x="9.600000000000001" y="9.600000000000001" width="12.8" height="12.8" as="geometry" />
        </mxCell>
        <mxCell id="T_M2wdokr-jcf68sooe3-318" value="" style="dashed=0;shape=rect;fillColor=#ffffff;strokeColor=none;" vertex="1" parent="1">
          <mxGeometry x="-22" y="524" width="358" height="642" as="geometry" />
        </mxCell>
        <mxCell id="T_M2wdokr-jcf68sooe3-319" value="12:30" style="dashed=0;shape=rect;align=right;fillColor=#000000;strokeColor=none;fontColor=#FFFFFF;spacingRight=4;spacingTop=1;fontStyle=0;fontSize=13;resizeWidth=1;whiteSpace=wrap;html=1;" vertex="1" parent="T_M2wdokr-jcf68sooe3-318">
          <mxGeometry width="358" height="24" relative="1" as="geometry" />
        </mxCell>
        <mxCell id="T_M2wdokr-jcf68sooe3-320" value="" style="dashed=0;shape=mxgraph.gmdl.top_bar;strokeColor=none;" vertex="1" parent="T_M2wdokr-jcf68sooe3-319">
          <mxGeometry x="1" y="0.5" width="46" height="14" relative="1" as="geometry">
            <mxPoint x="-92" y="-7" as="offset" />
          </mxGeometry>
        </mxCell>
        <mxCell id="T_M2wdokr-jcf68sooe3-321" value="" style="dashed=0;shape=rect;strokeColor=none;fillColor=#000000;resizeWidth=1;" vertex="1" parent="T_M2wdokr-jcf68sooe3-318">
          <mxGeometry y="1" width="358" height="48" relative="1" as="geometry">
            <mxPoint y="-48" as="offset" />
          </mxGeometry>
        </mxCell>
        <mxCell id="T_M2wdokr-jcf68sooe3-322" value="" style="dashed=0;shape=mxgraph.gmdl.back;strokeColor=#ffffff;fillColor=#000000;strokeWidth=2;" vertex="1" parent="T_M2wdokr-jcf68sooe3-321">
          <mxGeometry x="0.25" y="0.5" width="14" height="14" relative="1" as="geometry">
            <mxPoint x="-7" y="-7" as="offset" />
          </mxGeometry>
        </mxCell>
        <mxCell id="T_M2wdokr-jcf68sooe3-323" value="" style="shape=ellipse;strokeColor=#ffffff;fillColor=#000000;strokeWidth=2;" vertex="1" parent="T_M2wdokr-jcf68sooe3-321">
          <mxGeometry x="0.5" y="0.5" width="14" height="14" relative="1" as="geometry">
            <mxPoint x="-7" y="-7" as="offset" />
          </mxGeometry>
        </mxCell>
        <mxCell id="T_M2wdokr-jcf68sooe3-324" value="" style="shape=rect;strokeColor=#ffffff;fillColor=#000000;strokeWidth=2;" vertex="1" parent="T_M2wdokr-jcf68sooe3-321">
          <mxGeometry x="0.75" y="0.5" width="14" height="14" relative="1" as="geometry">
            <mxPoint x="-7" y="-7" as="offset" />
          </mxGeometry>
        </mxCell>
        <mxCell id="T_M2wdokr-jcf68sooe3-362" value="Додати звичку" style="dashed=0;shape=rect;strokeColor=none;fillColor=#808080;fontSize=20;fontColor=#FFFFFF;spacingTop=-8;verticalAlign=middle;align=left;spacingLeft=60;resizeWidth=1;whiteSpace=wrap;html=1;" vertex="1" parent="T_M2wdokr-jcf68sooe3-318">
          <mxGeometry width="358" height="57" relative="1" as="geometry">
            <mxPoint y="24" as="offset" />
          </mxGeometry>
        </mxCell>
        <mxCell id="T_M2wdokr-jcf68sooe3-363" value="" style="dashed=0;shape=mxgraph.gmdl.x;strokeColor=#ffffff;strokeWidth=2;" vertex="1" parent="T_M2wdokr-jcf68sooe3-362">
          <mxGeometry y="0.5" width="14" height="14" relative="1" as="geometry">
            <mxPoint x="20" y="-9" as="offset" />
          </mxGeometry>
        </mxCell>
        <mxCell id="T_M2wdokr-jcf68sooe3-364" value="Зберігти" style="text;fontSize=13;fontColor=#FFFFFF;spacingTop=0;verticalAlign=middle;spacingBottom=0;spacingLeft=8;whiteSpace=wrap;html=1;" vertex="1" parent="T_M2wdokr-jcf68sooe3-362">
          <mxGeometry x="1" y="1" width="76" height="42" relative="1" as="geometry">
            <mxPoint x="-77" y="-42" as="offset" />
          </mxGeometry>
        </mxCell>
        <mxCell id="T_M2wdokr-jcf68sooe3-395" value="" style="group" vertex="1" connectable="0" parent="T_M2wdokr-jcf68sooe3-318">
          <mxGeometry x="25" y="97" width="314" height="35" as="geometry" />
        </mxCell>
        <mxCell id="T_M2wdokr-jcf68sooe3-393" value="Читати 15 сторінок" style="text;fontColor=#000000;fontSize=16;verticalAlign=middle;strokeColor=none;fillColor=none;whiteSpace=wrap;html=1;" vertex="1" parent="T_M2wdokr-jcf68sooe3-395">
          <mxGeometry width="314" height="30" as="geometry" />
        </mxCell>
        <mxCell id="T_M2wdokr-jcf68sooe3-394" value="" style="dashed=0;shape=line;strokeWidth=1;noLabel=1;strokeColor=#cccccc;opacity=50;" vertex="1" parent="T_M2wdokr-jcf68sooe3-395">
          <mxGeometry y="25" width="314" height="10" as="geometry" />
        </mxCell>
        <mxCell id="T_M2wdokr-jcf68sooe3-396" value="" style="group" vertex="1" connectable="0" parent="T_M2wdokr-jcf68sooe3-318">
          <mxGeometry x="24" y="148" width="314" height="35" as="geometry" />
        </mxCell>
        <mxCell id="T_M2wdokr-jcf68sooe3-397" value="Опис" style="text;fontColor=#999999;fontSize=16;verticalAlign=middle;strokeColor=none;fillColor=none;whiteSpace=wrap;html=1;" vertex="1" parent="T_M2wdokr-jcf68sooe3-396">
          <mxGeometry width="314" height="30" as="geometry" />
        </mxCell>
        <mxCell id="T_M2wdokr-jcf68sooe3-398" value="" style="dashed=0;shape=line;strokeWidth=1;noLabel=1;strokeColor=#cccccc;opacity=50;" vertex="1" parent="T_M2wdokr-jcf68sooe3-396">
          <mxGeometry y="25" width="314" height="10" as="geometry" />
        </mxCell>
        <mxCell id="T_M2wdokr-jcf68sooe3-399" value="Тривалість" style="text;strokeColor=none;fillColor=none;html=1;align=left;verticalAlign=middle;whiteSpace=wrap;rounded=0;fontSize=12;fontColor=#808080;" vertex="1" parent="T_M2wdokr-jcf68sooe3-318">
          <mxGeometry x="24" y="194" width="154" height="30" as="geometry" />
        </mxCell>
        <mxCell id="T_M2wdokr-jcf68sooe3-406" style="edgeStyle=none;curved=1;rounded=0;orthogonalLoop=1;jettySize=auto;html=1;exitX=1;exitY=0.5;exitDx=0;exitDy=0;fontSize=12;startSize=8;endSize=8;" edge="1" parent="T_M2wdokr-jcf68sooe3-318">
          <mxGeometry relative="1" as="geometry">
            <mxPoint x="343" y="244" as="sourcePoint" />
            <mxPoint x="343" y="244" as="targetPoint" />
          </mxGeometry>
        </mxCell>
        <mxCell id="T_M2wdokr-jcf68sooe3-462" value="Час дня" style="text;strokeColor=none;fillColor=none;html=1;align=left;verticalAlign=middle;whiteSpace=wrap;rounded=0;fontSize=12;fontColor=#808080;" vertex="1" parent="T_M2wdokr-jcf68sooe3-318">
          <mxGeometry x="22" y="272" width="154" height="30" as="geometry" />
        </mxCell>
        <mxCell id="T_M2wdokr-jcf68sooe3-463" value="" style="group" vertex="1" connectable="0" parent="T_M2wdokr-jcf68sooe3-318">
          <mxGeometry x="6" y="276" width="346" height="72" as="geometry" />
        </mxCell>
        <mxCell id="T_M2wdokr-jcf68sooe3-464" value="Ранок" style="text;fontSize=16;spacing=2;spacingLeft=16;fontStyle=0;fontColor=#000000;resizeWidth=1;whiteSpace=wrap;html=1;" vertex="1" parent="T_M2wdokr-jcf68sooe3-463">
          <mxGeometry width="346" height="30" relative="1" as="geometry">
            <mxPoint y="27" as="offset" />
          </mxGeometry>
        </mxCell>
        <mxCell id="T_M2wdokr-jcf68sooe3-465" value="" style="dashed=0;shape=mxgraph.gmdl.triangle;strokeColor=none;fillColor=#707070;" vertex="1" parent="T_M2wdokr-jcf68sooe3-464">
          <mxGeometry x="1" width="10" height="5" relative="1" as="geometry">
            <mxPoint x="-26" y="13" as="offset" />
          </mxGeometry>
        </mxCell>
        <mxCell id="T_M2wdokr-jcf68sooe3-466" value="" style="dashed=0;shape=line;strokeWidth=1;noLabel=1;strokeColor=#eeeeee;resizeWidth=1;" vertex="1" parent="T_M2wdokr-jcf68sooe3-463">
          <mxGeometry x="0.0462" width="314" height="20" relative="1" as="geometry">
            <mxPoint y="52" as="offset" />
          </mxGeometry>
        </mxCell>
        <mxCell id="T_M2wdokr-jcf68sooe3-471" value="&lt;div style=&quot;&quot;&gt;&lt;span style=&quot;background-color: initial;&quot;&gt;10:00&lt;/span&gt;&lt;/div&gt;" style="shape=rect;arcSize=50;strokeColor=none;fillColor=#eeeeee;rounded=1;spacingLeft=24;fontSize=13;align=left;whiteSpace=wrap;html=1;" vertex="1" parent="T_M2wdokr-jcf68sooe3-318">
          <mxGeometry x="24" y="388" width="84" height="32" as="geometry" />
        </mxCell>
        <mxCell id="T_M2wdokr-jcf68sooe3-475" value="Нагадування" style="text;strokeColor=none;fillColor=none;html=1;align=left;verticalAlign=middle;whiteSpace=wrap;rounded=0;fontSize=12;fontColor=#808080;" vertex="1" parent="T_M2wdokr-jcf68sooe3-318">
          <mxGeometry x="22" y="351" width="154" height="30" as="geometry" />
        </mxCell>
        <mxCell id="T_M2wdokr-jcf68sooe3-457" value="" style="group" vertex="1" connectable="0" parent="1">
          <mxGeometry x="-14" y="722" width="346" height="72" as="geometry" />
        </mxCell>
        <mxCell id="T_M2wdokr-jcf68sooe3-451" value="Кожного дня" style="text;fontSize=16;spacing=2;spacingLeft=16;fontStyle=0;fontColor=#000000;resizeWidth=1;whiteSpace=wrap;html=1;" vertex="1" parent="T_M2wdokr-jcf68sooe3-457">
          <mxGeometry width="346" height="30" relative="1" as="geometry">
            <mxPoint y="27" as="offset" />
          </mxGeometry>
        </mxCell>
        <mxCell id="T_M2wdokr-jcf68sooe3-452" value="" style="dashed=0;shape=mxgraph.gmdl.triangle;strokeColor=none;fillColor=#707070;" vertex="1" parent="T_M2wdokr-jcf68sooe3-451">
          <mxGeometry x="1" width="10" height="5" relative="1" as="geometry">
            <mxPoint x="-26" y="13" as="offset" />
          </mxGeometry>
        </mxCell>
        <mxCell id="T_M2wdokr-jcf68sooe3-453" value="" style="dashed=0;shape=line;strokeWidth=1;noLabel=1;strokeColor=#eeeeee;resizeWidth=1;" vertex="1" parent="T_M2wdokr-jcf68sooe3-457">
          <mxGeometry x="0.0462" width="314" height="20" relative="1" as="geometry">
            <mxPoint y="52" as="offset" />
          </mxGeometry>
        </mxCell>
        <mxCell id="T_M2wdokr-jcf68sooe3-477" style="edgeStyle=none;curved=1;rounded=0;orthogonalLoop=1;jettySize=auto;html=1;fontSize=12;startSize=8;endSize=8;" edge="1" parent="1" target="T_M2wdokr-jcf68sooe3-318">
          <mxGeometry relative="1" as="geometry">
            <mxPoint x="-275" y="932" as="sourcePoint" />
          </mxGeometry>
        </mxCell>
        <mxCell id="T_M2wdokr-jcf68sooe3-478" value="&lt;span style=&quot;white-space: pre;&quot;&gt;Додавання звички&lt;/span&gt;" style="text;strokeColor=none;fillColor=none;html=1;align=center;verticalAlign=middle;whiteSpace=wrap;rounded=0;fontSize=16;" vertex="1" parent="1">
          <mxGeometry x="-243" y="860" width="173" height="30" as="geometry" />
        </mxCell>
        <mxCell id="T_M2wdokr-jcf68sooe3-479" value="я" style="dashed=0;shape=rect;fillColor=#ffffff;strokeColor=none;" vertex="1" parent="1">
          <mxGeometry x="-612" y="1323" width="358" height="642" as="geometry" />
        </mxCell>
        <mxCell id="T_M2wdokr-jcf68sooe3-480" value="12:30" style="dashed=0;shape=rect;align=right;fillColor=#000000;strokeColor=none;fontColor=#FFFFFF;spacingRight=4;spacingTop=1;fontStyle=0;fontSize=13;resizeWidth=1;whiteSpace=wrap;html=1;" vertex="1" parent="T_M2wdokr-jcf68sooe3-479">
          <mxGeometry width="358" height="24" relative="1" as="geometry" />
        </mxCell>
        <mxCell id="T_M2wdokr-jcf68sooe3-481" value="" style="dashed=0;shape=mxgraph.gmdl.top_bar;strokeColor=none;" vertex="1" parent="T_M2wdokr-jcf68sooe3-480">
          <mxGeometry x="1" y="0.5" width="46" height="14" relative="1" as="geometry">
            <mxPoint x="-92" y="-7" as="offset" />
          </mxGeometry>
        </mxCell>
        <mxCell id="T_M2wdokr-jcf68sooe3-482" value="" style="dashed=0;shape=rect;strokeColor=none;fillColor=#000000;resizeWidth=1;" vertex="1" parent="T_M2wdokr-jcf68sooe3-479">
          <mxGeometry y="1" width="358" height="48" relative="1" as="geometry">
            <mxPoint y="-48" as="offset" />
          </mxGeometry>
        </mxCell>
        <mxCell id="T_M2wdokr-jcf68sooe3-483" value="" style="dashed=0;shape=mxgraph.gmdl.back;strokeColor=#ffffff;fillColor=#000000;strokeWidth=2;" vertex="1" parent="T_M2wdokr-jcf68sooe3-482">
          <mxGeometry x="0.25" y="0.5" width="14" height="14" relative="1" as="geometry">
            <mxPoint x="-7" y="-7" as="offset" />
          </mxGeometry>
        </mxCell>
        <mxCell id="T_M2wdokr-jcf68sooe3-484" value="" style="shape=ellipse;strokeColor=#ffffff;fillColor=#000000;strokeWidth=2;" vertex="1" parent="T_M2wdokr-jcf68sooe3-482">
          <mxGeometry x="0.5" y="0.5" width="14" height="14" relative="1" as="geometry">
            <mxPoint x="-7" y="-7" as="offset" />
          </mxGeometry>
        </mxCell>
        <mxCell id="T_M2wdokr-jcf68sooe3-485" value="" style="shape=rect;strokeColor=#ffffff;fillColor=#000000;strokeWidth=2;" vertex="1" parent="T_M2wdokr-jcf68sooe3-482">
          <mxGeometry x="0.75" y="0.5" width="14" height="14" relative="1" as="geometry">
            <mxPoint x="-7" y="-7" as="offset" />
          </mxGeometry>
        </mxCell>
        <mxCell id="T_M2wdokr-jcf68sooe3-486" value="Лягти спати о 22:00" style="dashed=0;shape=rect;fillColor=#ffffff;strokeColor=none;verticalLabelPosition=middle;align=left;verticalAlign=middle;fontSize=15;spacingLeft=72;whiteSpace=wrap;html=1;" vertex="1" parent="T_M2wdokr-jcf68sooe3-479">
          <mxGeometry x="1.73" y="132" width="356.27" height="56" as="geometry" />
        </mxCell>
        <mxCell id="T_M2wdokr-jcf68sooe3-487" value="" style="dashed=0;shape=mxgraph.gmdl.checkbox;strokeColor=#666666;fillColor=none;strokeWidth=2;" vertex="1" parent="T_M2wdokr-jcf68sooe3-486">
          <mxGeometry y="0.5" width="18" height="18" relative="1" as="geometry">
            <mxPoint x="16" y="-9" as="offset" />
          </mxGeometry>
        </mxCell>
        <mxCell id="T_M2wdokr-jcf68sooe3-488" value="Медитація" style="dashed=0;shape=rect;fillColor=#ffffff;strokeColor=none;verticalLabelPosition=middle;align=left;verticalAlign=middle;fontSize=15;spacingLeft=72;whiteSpace=wrap;html=1;" vertex="1" parent="T_M2wdokr-jcf68sooe3-479">
          <mxGeometry x="1.7299999999999796" y="244" width="289" height="56" as="geometry" />
        </mxCell>
        <mxCell id="T_M2wdokr-jcf68sooe3-489" value="" style="dashed=0;shape=mxgraph.gmdl.checkbox;strokeColor=#666666;fillColor=#030303;strokeWidth=2;" vertex="1" parent="T_M2wdokr-jcf68sooe3-488">
          <mxGeometry y="0.5" width="18" height="18" relative="1" as="geometry">
            <mxPoint x="16" y="-9" as="offset" />
          </mxGeometry>
        </mxCell>
        <mxCell id="T_M2wdokr-jcf68sooe3-490" value="Руханка зранку 10 хвилин" style="dashed=0;shape=rect;fillColor=#ffffff;strokeColor=none;verticalLabelPosition=middle;align=left;verticalAlign=middle;fontSize=15;spacingLeft=72;whiteSpace=wrap;html=1;" vertex="1" parent="T_M2wdokr-jcf68sooe3-479">
          <mxGeometry x="2.2299999999999796" y="300" width="287" height="56" as="geometry" />
        </mxCell>
        <mxCell id="T_M2wdokr-jcf68sooe3-491" value="" style="dashed=0;shape=mxgraph.gmdl.checkbox;strokeColor=#666666;fillColor=#000000;strokeWidth=2;" vertex="1" parent="T_M2wdokr-jcf68sooe3-490">
          <mxGeometry y="0.5" width="18" height="18" relative="1" as="geometry">
            <mxPoint x="16" y="-9" as="offset" />
          </mxGeometry>
        </mxCell>
        <mxCell id="T_M2wdokr-jcf68sooe3-492" value="Пройти 10 тисяч рухів після роботи" style="dashed=0;shape=rect;fillColor=#ffffff;strokeColor=none;verticalLabelPosition=middle;align=left;verticalAlign=middle;fontSize=15;spacingLeft=72;whiteSpace=wrap;html=1;" vertex="1" parent="T_M2wdokr-jcf68sooe3-479">
          <mxGeometry x="1.73" y="188" width="354.54" height="56" as="geometry" />
        </mxCell>
        <mxCell id="T_M2wdokr-jcf68sooe3-493" value="" style="dashed=0;shape=mxgraph.gmdl.checkbox;strokeColor=#666666;fillColor=none;strokeWidth=2;" vertex="1" parent="T_M2wdokr-jcf68sooe3-492">
          <mxGeometry y="0.5" width="18" height="18" relative="1" as="geometry">
            <mxPoint x="16" y="-9" as="offset" />
          </mxGeometry>
        </mxCell>
        <mxCell id="T_M2wdokr-jcf68sooe3-494" value="" style="dashed=0;align=center;fontSize=12;shape=rect;fillColor=#ffffff;strokeColor=none;shadow=0;hachureGap=4;pointerEvents=0;fontFamily=Architects Daughter;fontSource=https%3A%2F%2Ffonts.googleapis.com%2Fcss%3Ffamily%3DArchitects%2BDaughter;" vertex="1" parent="T_M2wdokr-jcf68sooe3-479">
          <mxGeometry x="-1.04" y="547" width="359.04" height="48" as="geometry" />
        </mxCell>
        <mxCell id="T_M2wdokr-jcf68sooe3-495" value="&lt;font color=&quot;#000000&quot;&gt;Головна&lt;/font&gt;" style="dashed=0;html=1;shape=mxgraph.gmdl.calendar;fillColor=#000000;strokeColor=none;fontColor=#808080;verticalAlign=top;spacingLeft=0;fontSize=10;labelPosition=center;verticalLabelPosition=bottom;align=center;spacingBottom=0;spacingTop=-6;hachureGap=4;pointerEvents=0;fontFamily=Helvetica;aspect=fixed;shadow=0;sketch=0;" vertex="1" parent="T_M2wdokr-jcf68sooe3-494">
          <mxGeometry x="0.15" y="0.5" width="20" height="20" relative="1" as="geometry">
            <mxPoint x="-10" y="-15" as="offset" />
          </mxGeometry>
        </mxCell>
        <mxCell id="T_M2wdokr-jcf68sooe3-496" value="&lt;font color=&quot;#808080&quot;&gt;Щоденник&lt;/font&gt;" style="dashed=0;html=1;shape=mxgraph.gmdl.heart;fillColor=#808080;strokeColor=none;fontColor=#00796B;verticalAlign=top;spacingLeft=0;fontSize=10;labelPosition=center;verticalLabelPosition=bottom;align=center;spacingBottom=0;spacingTop=-5;hachureGap=4;pointerEvents=0;fontFamily=Helvetica;" vertex="1" parent="T_M2wdokr-jcf68sooe3-494">
          <mxGeometry x="0.5" y="0.5" width="20" height="18" relative="1" as="geometry">
            <mxPoint x="-10" y="-14" as="offset" />
          </mxGeometry>
        </mxCell>
        <mxCell id="T_M2wdokr-jcf68sooe3-497" value="Профіль" style="dashed=0;html=1;shape=mxgraph.gmdl.chat;fillColor=#808080;strokeColor=none;fontColor=#808080;verticalAlign=top;spacingLeft=0;fontSize=10;labelPosition=center;verticalLabelPosition=bottom;align=center;spacingBottom=0;spacingTop=-6;hachureGap=4;pointerEvents=0;fontFamily=Helvetica;aspect=fixed;shadow=0;sketch=0;gradientColor=none;fillStyle=solid;" vertex="1" parent="T_M2wdokr-jcf68sooe3-494">
          <mxGeometry x="0.85" y="0.5" width="20" height="20" relative="1" as="geometry">
            <mxPoint x="-10" y="-15" as="offset" />
          </mxGeometry>
        </mxCell>
        <mxCell id="T_M2wdokr-jcf68sooe3-498" value="S" style="text;verticalAlign=middle;align=center;fontColor=#808080;resizeWidth=1;whiteSpace=wrap;html=1;" vertex="1" parent="T_M2wdokr-jcf68sooe3-479">
          <mxGeometry width="49" height="40" relative="1" as="geometry">
            <mxPoint x="2" y="30" as="offset" />
          </mxGeometry>
        </mxCell>
        <mxCell id="T_M2wdokr-jcf68sooe3-499" value="M" style="text;verticalAlign=middle;align=center;fontColor=#808080;resizeWidth=1;whiteSpace=wrap;html=1;" vertex="1" parent="T_M2wdokr-jcf68sooe3-479">
          <mxGeometry x="0.1463" width="46" height="40" relative="1" as="geometry">
            <mxPoint x="2" y="30" as="offset" />
          </mxGeometry>
        </mxCell>
        <mxCell id="T_M2wdokr-jcf68sooe3-500" value="T" style="text;verticalAlign=middle;align=center;fontColor=#808080;resizeWidth=1;whiteSpace=wrap;html=1;" vertex="1" parent="T_M2wdokr-jcf68sooe3-479">
          <mxGeometry x="0.2896" width="46" height="40" relative="1" as="geometry">
            <mxPoint x="2" y="30" as="offset" />
          </mxGeometry>
        </mxCell>
        <mxCell id="T_M2wdokr-jcf68sooe3-501" value="W" style="text;verticalAlign=middle;align=center;fontColor=#808080;resizeWidth=1;whiteSpace=wrap;html=1;" vertex="1" parent="T_M2wdokr-jcf68sooe3-479">
          <mxGeometry x="0.4299" width="45.57" height="39.63" relative="1" as="geometry">
            <mxPoint x="2.0000999999999998" y="30" as="offset" />
          </mxGeometry>
        </mxCell>
        <mxCell id="T_M2wdokr-jcf68sooe3-502" value="T" style="text;verticalAlign=middle;align=center;fontColor=#808080;resizeWidth=1;whiteSpace=wrap;html=1;" vertex="1" parent="T_M2wdokr-jcf68sooe3-479">
          <mxGeometry x="0.5701" width="46" height="40" relative="1" as="geometry">
            <mxPoint x="2" y="30" as="offset" />
          </mxGeometry>
        </mxCell>
        <mxCell id="T_M2wdokr-jcf68sooe3-503" value="F" style="text;verticalAlign=middle;align=center;fontColor=#808080;resizeWidth=1;whiteSpace=wrap;html=1;" vertex="1" parent="T_M2wdokr-jcf68sooe3-479">
          <mxGeometry x="0.7104" width="46" height="40" relative="1" as="geometry">
            <mxPoint x="2" y="30" as="offset" />
          </mxGeometry>
        </mxCell>
        <mxCell id="T_M2wdokr-jcf68sooe3-504" value="S" style="text;verticalAlign=middle;align=center;fontColor=#808080;resizeWidth=1;whiteSpace=wrap;html=1;" vertex="1" parent="T_M2wdokr-jcf68sooe3-479">
          <mxGeometry x="0.8506" width="49" height="40" relative="1" as="geometry">
            <mxPoint x="2" y="30" as="offset" />
          </mxGeometry>
        </mxCell>
        <mxCell id="T_M2wdokr-jcf68sooe3-505" value="9" style="text;verticalAlign=middle;align=center;fontColor=#808080;fontStyle=1;resizeWidth=1;whiteSpace=wrap;html=1;" vertex="1" parent="T_M2wdokr-jcf68sooe3-479">
          <mxGeometry width="49" height="40" relative="1" as="geometry">
            <mxPoint y="64" as="offset" />
          </mxGeometry>
        </mxCell>
        <mxCell id="T_M2wdokr-jcf68sooe3-506" value="10" style="text;verticalAlign=middle;align=center;fontColor=#808080;fontStyle=1;resizeWidth=1;whiteSpace=wrap;html=1;" vertex="1" parent="T_M2wdokr-jcf68sooe3-479">
          <mxGeometry x="0.1463" width="46" height="40" relative="1" as="geometry">
            <mxPoint y="64" as="offset" />
          </mxGeometry>
        </mxCell>
        <mxCell id="T_M2wdokr-jcf68sooe3-507" value="11" style="text;verticalAlign=middle;align=center;fontColor=#808080;fontStyle=1;resizeWidth=1;whiteSpace=wrap;html=1;" vertex="1" parent="T_M2wdokr-jcf68sooe3-479">
          <mxGeometry x="0.2896" width="46" height="40" relative="1" as="geometry">
            <mxPoint y="64" as="offset" />
          </mxGeometry>
        </mxCell>
        <mxCell id="T_M2wdokr-jcf68sooe3-508" value="12" style="text;verticalAlign=middle;align=center;fontColor=#808080;fontStyle=1;resizeWidth=1;whiteSpace=wrap;html=1;" vertex="1" parent="T_M2wdokr-jcf68sooe3-479">
          <mxGeometry x="0.4299" width="46" height="40" relative="1" as="geometry">
            <mxPoint y="64" as="offset" />
          </mxGeometry>
        </mxCell>
        <mxCell id="T_M2wdokr-jcf68sooe3-509" value="14" style="text;verticalAlign=middle;align=center;fontColor=#4D4D4D;fontStyle=1;resizeWidth=1;whiteSpace=wrap;html=1;" vertex="1" parent="T_M2wdokr-jcf68sooe3-479">
          <mxGeometry x="0.7104" width="46" height="40" relative="1" as="geometry">
            <mxPoint y="64" as="offset" />
          </mxGeometry>
        </mxCell>
        <mxCell id="T_M2wdokr-jcf68sooe3-510" value="13" style="shape=ellipse;fillColor=#000000;strokeColor=none;verticalAlign=middle;align=center;fontColor=#ffffff;fontStyle=1;whiteSpace=wrap;html=1;" vertex="1" parent="T_M2wdokr-jcf68sooe3-479">
          <mxGeometry x="0.6402" width="40" height="40" relative="1" as="geometry">
            <mxPoint x="-20" y="64" as="offset" />
          </mxGeometry>
        </mxCell>
        <mxCell id="T_M2wdokr-jcf68sooe3-511" value="15" style="text;verticalAlign=middle;align=center;fontColor=#4D4D4D;fontStyle=1;resizeWidth=1;whiteSpace=wrap;html=1;" vertex="1" parent="T_M2wdokr-jcf68sooe3-479">
          <mxGeometry x="0.8506" width="49" height="40" relative="1" as="geometry">
            <mxPoint y="64" as="offset" />
          </mxGeometry>
        </mxCell>
        <mxCell id="T_M2wdokr-jcf68sooe3-512" value="Развернути" style="text;strokeColor=none;fillColor=none;html=1;align=center;verticalAlign=middle;whiteSpace=wrap;rounded=0;fontSize=10;fontColor=#808080;" vertex="1" parent="T_M2wdokr-jcf68sooe3-479">
          <mxGeometry x="259.27" y="105" width="96.73" height="30" as="geometry" />
        </mxCell>
        <mxCell id="T_M2wdokr-jcf68sooe3-513" value="2/4 Зробленно" style="text;strokeColor=none;fillColor=none;html=1;align=center;verticalAlign=middle;whiteSpace=wrap;rounded=0;fontSize=10;fontColor=#808080;" vertex="1" parent="T_M2wdokr-jcf68sooe3-479">
          <mxGeometry x="1.7299999999999613" y="105" width="97" height="30" as="geometry" />
        </mxCell>
        <mxCell id="T_M2wdokr-jcf68sooe3-514" value="" style="shape=ellipse;strokeColor=none;fillColor=#000000;shadow=1;gradientColor=none;sketch=0;hachureGap=4;pointerEvents=0;fontFamily=Architects Daughter;fontSource=https%3A%2F%2Ffonts.googleapis.com%2Fcss%3Ffamily%3DArchitects%2BDaughter;fontSize=20;" vertex="1" parent="T_M2wdokr-jcf68sooe3-479">
          <mxGeometry x="279.63" y="478" width="56" height="56" as="geometry" />
        </mxCell>
        <mxCell id="T_M2wdokr-jcf68sooe3-515" value="" style="dashed=0;html=1;shape=mxgraph.gmdl.x;strokeColor=#ffffff;strokeWidth=2;sketch=0;hachureGap=4;pointerEvents=0;fontFamily=Architects Daughter;fontSource=https%3A%2F%2Ffonts.googleapis.com%2Fcss%3Ffamily%3DArchitects%2BDaughter;fontSize=20;" vertex="1" parent="T_M2wdokr-jcf68sooe3-514">
          <mxGeometry x="0.5" y="0.5" width="16" height="16" relative="1" as="geometry">
            <mxPoint x="-8" y="-8" as="offset" />
          </mxGeometry>
        </mxCell>
        <mxCell id="T_M2wdokr-jcf68sooe3-516" value="" style="shape=ellipse;dashed=0;strokeColor=none;shadow=1;fontSize=13;align=center;verticalAlign=top;labelPosition=center;verticalLabelPosition=bottom;html=1;aspect=fixed;" vertex="1" parent="T_M2wdokr-jcf68sooe3-479">
          <mxGeometry x="292.12" y="434.77" width="34.23" height="34.23" as="geometry" />
        </mxCell>
        <mxCell id="T_M2wdokr-jcf68sooe3-517" value="" style="dashed=0;html=1;shape=mxgraph.gmdl.edit;strokeColor=none;fillColor=#737373;shadow=0;sketch=0;html=1;labelPosition=center;verticalLabelPosition=bottom;align=center;verticalAlign=top;" vertex="1" parent="T_M2wdokr-jcf68sooe3-516">
          <mxGeometry x="11.002500000000001" y="11.002500000000001" width="12.225" height="12.225" as="geometry" />
        </mxCell>
        <mxCell id="T_M2wdokr-jcf68sooe3-518" value="" style="shape=ellipse;dashed=0;strokeColor=none;shadow=1;fontSize=13;align=center;verticalAlign=top;labelPosition=center;verticalLabelPosition=bottom;html=1;aspect=fixed;" vertex="1" parent="T_M2wdokr-jcf68sooe3-479">
          <mxGeometry x="293.23" y="392.12" width="32" height="32" as="geometry" />
        </mxCell>
        <mxCell id="T_M2wdokr-jcf68sooe3-519" value="" style="dashed=0;html=1;shape=mxgraph.gmdl.plus;strokeColor=#737373;strokeWidth=2;shadow=0;sketch=0;html=1;labelPosition=center;verticalLabelPosition=bottom;align=center;verticalAlign=top;" vertex="1" parent="T_M2wdokr-jcf68sooe3-518">
          <mxGeometry x="9.600000000000001" y="9.600000000000001" width="12.8" height="12.8" as="geometry" />
        </mxCell>
        <mxCell id="T_M2wdokr-jcf68sooe3-520" value="" style="dashed=0;shape=rect;fillColor=#ffffff;strokeColor=none;" vertex="1" parent="1">
          <mxGeometry x="-86" y="1332" width="358" height="642" as="geometry" />
        </mxCell>
        <mxCell id="T_M2wdokr-jcf68sooe3-521" value="12:30" style="dashed=0;shape=rect;align=right;fillColor=#000000;strokeColor=none;fontColor=#FFFFFF;spacingRight=4;spacingTop=1;fontStyle=0;fontSize=13;resizeWidth=1;whiteSpace=wrap;html=1;" vertex="1" parent="T_M2wdokr-jcf68sooe3-520">
          <mxGeometry width="358" height="24" relative="1" as="geometry" />
        </mxCell>
        <mxCell id="T_M2wdokr-jcf68sooe3-522" value="" style="dashed=0;shape=mxgraph.gmdl.top_bar;strokeColor=none;" vertex="1" parent="T_M2wdokr-jcf68sooe3-521">
          <mxGeometry x="1" y="0.5" width="46" height="14" relative="1" as="geometry">
            <mxPoint x="-92" y="-7" as="offset" />
          </mxGeometry>
        </mxCell>
        <mxCell id="T_M2wdokr-jcf68sooe3-523" value="" style="dashed=0;shape=rect;strokeColor=none;fillColor=#000000;resizeWidth=1;" vertex="1" parent="T_M2wdokr-jcf68sooe3-520">
          <mxGeometry y="1" width="358" height="48" relative="1" as="geometry">
            <mxPoint y="-48" as="offset" />
          </mxGeometry>
        </mxCell>
        <mxCell id="T_M2wdokr-jcf68sooe3-524" value="" style="dashed=0;shape=mxgraph.gmdl.back;strokeColor=#ffffff;fillColor=#000000;strokeWidth=2;" vertex="1" parent="T_M2wdokr-jcf68sooe3-523">
          <mxGeometry x="0.25" y="0.5" width="14" height="14" relative="1" as="geometry">
            <mxPoint x="-7" y="-7" as="offset" />
          </mxGeometry>
        </mxCell>
        <mxCell id="T_M2wdokr-jcf68sooe3-525" value="" style="shape=ellipse;strokeColor=#ffffff;fillColor=#000000;strokeWidth=2;" vertex="1" parent="T_M2wdokr-jcf68sooe3-523">
          <mxGeometry x="0.5" y="0.5" width="14" height="14" relative="1" as="geometry">
            <mxPoint x="-7" y="-7" as="offset" />
          </mxGeometry>
        </mxCell>
        <mxCell id="T_M2wdokr-jcf68sooe3-526" value="" style="shape=rect;strokeColor=#ffffff;fillColor=#000000;strokeWidth=2;" vertex="1" parent="T_M2wdokr-jcf68sooe3-523">
          <mxGeometry x="0.75" y="0.5" width="14" height="14" relative="1" as="geometry">
            <mxPoint x="-7" y="-7" as="offset" />
          </mxGeometry>
        </mxCell>
        <mxCell id="T_M2wdokr-jcf68sooe3-527" value="Новий запис" style="dashed=0;shape=rect;strokeColor=none;fillColor=#808080;fontSize=20;fontColor=#FFFFFF;spacingTop=-8;verticalAlign=middle;align=left;spacingLeft=60;resizeWidth=1;whiteSpace=wrap;html=1;" vertex="1" parent="T_M2wdokr-jcf68sooe3-520">
          <mxGeometry width="358" height="57" relative="1" as="geometry">
            <mxPoint y="24" as="offset" />
          </mxGeometry>
        </mxCell>
        <mxCell id="T_M2wdokr-jcf68sooe3-528" value="" style="dashed=0;shape=mxgraph.gmdl.x;strokeColor=#ffffff;strokeWidth=2;" vertex="1" parent="T_M2wdokr-jcf68sooe3-527">
          <mxGeometry y="0.5" width="14" height="14" relative="1" as="geometry">
            <mxPoint x="20" y="-9" as="offset" />
          </mxGeometry>
        </mxCell>
        <mxCell id="T_M2wdokr-jcf68sooe3-529" value="Зберігти" style="text;fontSize=13;fontColor=#FFFFFF;spacingTop=0;verticalAlign=middle;spacingBottom=0;spacingLeft=8;whiteSpace=wrap;html=1;" vertex="1" parent="T_M2wdokr-jcf68sooe3-527">
          <mxGeometry x="1" y="1" width="76" height="42" relative="1" as="geometry">
            <mxPoint x="-77" y="-42" as="offset" />
          </mxGeometry>
        </mxCell>
        <mxCell id="T_M2wdokr-jcf68sooe3-530" value="" style="group" vertex="1" connectable="0" parent="T_M2wdokr-jcf68sooe3-520">
          <mxGeometry x="25" y="97" width="314" height="35" as="geometry" />
        </mxCell>
        <mxCell id="T_M2wdokr-jcf68sooe3-531" value="Четвер, 13 травня" style="text;fontColor=#000000;fontSize=16;verticalAlign=middle;strokeColor=none;fillColor=none;whiteSpace=wrap;html=1;" vertex="1" parent="T_M2wdokr-jcf68sooe3-530">
          <mxGeometry width="314" height="30" as="geometry" />
        </mxCell>
        <mxCell id="T_M2wdokr-jcf68sooe3-532" value="" style="dashed=0;shape=line;strokeWidth=1;noLabel=1;strokeColor=#cccccc;opacity=50;" vertex="1" parent="T_M2wdokr-jcf68sooe3-530">
          <mxGeometry y="25" width="314" height="10" as="geometry" />
        </mxCell>
        <mxCell id="T_M2wdokr-jcf68sooe3-537" style="edgeStyle=none;curved=1;rounded=0;orthogonalLoop=1;jettySize=auto;html=1;exitX=1;exitY=0.5;exitDx=0;exitDy=0;fontSize=12;startSize=8;endSize=8;" edge="1" parent="T_M2wdokr-jcf68sooe3-520">
          <mxGeometry relative="1" as="geometry">
            <mxPoint x="343" y="244" as="sourcePoint" />
            <mxPoint x="343" y="244" as="targetPoint" />
          </mxGeometry>
        </mxCell>
        <mxCell id="T_M2wdokr-jcf68sooe3-539" value="" style="group" vertex="1" connectable="0" parent="T_M2wdokr-jcf68sooe3-520">
          <mxGeometry x="10" y="141" width="346" height="72" as="geometry" />
        </mxCell>
        <mxCell id="T_M2wdokr-jcf68sooe3-540" value="Гнів" style="text;fontSize=16;spacing=2;spacingLeft=16;fontStyle=0;fontColor=#000000;resizeWidth=1;whiteSpace=wrap;html=1;" vertex="1" parent="T_M2wdokr-jcf68sooe3-539">
          <mxGeometry width="346" height="30" relative="1" as="geometry">
            <mxPoint y="27" as="offset" />
          </mxGeometry>
        </mxCell>
        <mxCell id="T_M2wdokr-jcf68sooe3-541" value="" style="dashed=0;shape=mxgraph.gmdl.triangle;strokeColor=none;fillColor=#707070;" vertex="1" parent="T_M2wdokr-jcf68sooe3-540">
          <mxGeometry x="1" width="10" height="5" relative="1" as="geometry">
            <mxPoint x="-26" y="13" as="offset" />
          </mxGeometry>
        </mxCell>
        <mxCell id="T_M2wdokr-jcf68sooe3-566" value="Оберіть емоцію" style="text;strokeColor=none;fillColor=none;html=1;align=left;verticalAlign=middle;whiteSpace=wrap;rounded=0;fontSize=12;fontColor=#808080;" vertex="1" parent="T_M2wdokr-jcf68sooe3-540">
          <mxGeometry x="15" y="-28" width="154" height="30" as="geometry" />
        </mxCell>
        <mxCell id="T_M2wdokr-jcf68sooe3-542" value="" style="dashed=0;shape=line;strokeWidth=1;noLabel=1;strokeColor=#eeeeee;resizeWidth=1;" vertex="1" parent="T_M2wdokr-jcf68sooe3-539">
          <mxGeometry x="0.0462" width="314" height="20" relative="1" as="geometry">
            <mxPoint y="52" as="offset" />
          </mxGeometry>
        </mxCell>
        <mxCell id="T_M2wdokr-jcf68sooe3-547" style="edgeStyle=none;curved=1;rounded=0;orthogonalLoop=1;jettySize=auto;html=1;exitX=0.25;exitY=0;exitDx=0;exitDy=0;fontSize=12;startSize=8;endSize=8;" edge="1" parent="T_M2wdokr-jcf68sooe3-539" source="T_M2wdokr-jcf68sooe3-540" target="T_M2wdokr-jcf68sooe3-540">
          <mxGeometry relative="1" as="geometry" />
        </mxCell>
        <mxCell id="T_M2wdokr-jcf68sooe3-560" value="Lorem ipsum dolor sit amet, consectetur adipiscing elit, sed do eiusmod tempor incididunt ut labore et dolore magna aliqua. Ut enim ad minim veniam, quis nostrud exercitation ullamco laboris nisi ut aliquip ex ea commodo consequat. Duis aute irure dolor in reprehenderit in voluptate velit esse cillum dolore eu fugiat nulla pariatur. Excepteur sint occaecat cupidatat non proident, sunt in culpa qui officia deserunt mollit anim id est laborum." style="shape=rect;fontSize=14;strokeColor=none;fillColor=none;whiteSpace=wrap;verticalAlign=top;align=left;spacing=16;resizeWidth=1;resizeHeight=1;html=1;" vertex="1" parent="T_M2wdokr-jcf68sooe3-520">
          <mxGeometry width="317" height="400" relative="1" as="geometry">
            <mxPoint x="21" y="242" as="offset" />
          </mxGeometry>
        </mxCell>
        <mxCell id="T_M2wdokr-jcf68sooe3-565" value="Опис" style="text;strokeColor=none;fillColor=none;html=1;align=left;verticalAlign=middle;whiteSpace=wrap;rounded=0;fontSize=12;fontColor=#808080;" vertex="1" parent="T_M2wdokr-jcf68sooe3-520">
          <mxGeometry x="25" y="227" width="154" height="30" as="geometry" />
        </mxCell>
        <mxCell id="T_M2wdokr-jcf68sooe3-545" style="edgeStyle=none;curved=1;rounded=0;orthogonalLoop=1;jettySize=auto;html=1;fontSize=12;startSize=8;endSize=8;" edge="1" parent="1" source="T_M2wdokr-jcf68sooe3-516" target="T_M2wdokr-jcf68sooe3-520">
          <mxGeometry relative="1" as="geometry" />
        </mxCell>
        <mxCell id="T_M2wdokr-jcf68sooe3-567" value="&lt;span style=&quot;white-space: pre;&quot;&gt;Додавання запису&lt;/span&gt;" style="text;strokeColor=none;fillColor=none;html=1;align=center;verticalAlign=middle;whiteSpace=wrap;rounded=0;fontSize=16;" vertex="1" parent="1">
          <mxGeometry x="-268" y="1662" width="173" height="30" as="geometry" />
        </mxCell>
        <mxCell id="T_M2wdokr-jcf68sooe3-568" value="" style="dashed=0;shape=rect;fillColor=#ffffff;strokeColor=none;" vertex="1" parent="1">
          <mxGeometry x="-609" y="2103" width="358" height="642" as="geometry" />
        </mxCell>
        <mxCell id="T_M2wdokr-jcf68sooe3-569" value="12:30" style="dashed=0;shape=rect;align=right;fillColor=#000000;strokeColor=none;fontColor=#FFFFFF;spacingRight=4;spacingTop=1;fontStyle=0;fontSize=13;resizeWidth=1;whiteSpace=wrap;html=1;" vertex="1" parent="T_M2wdokr-jcf68sooe3-568">
          <mxGeometry width="358" height="24" relative="1" as="geometry" />
        </mxCell>
        <mxCell id="T_M2wdokr-jcf68sooe3-570" value="" style="dashed=0;shape=mxgraph.gmdl.top_bar;strokeColor=none;" vertex="1" parent="T_M2wdokr-jcf68sooe3-569">
          <mxGeometry x="1" y="0.5" width="46" height="14" relative="1" as="geometry">
            <mxPoint x="-92" y="-7" as="offset" />
          </mxGeometry>
        </mxCell>
        <mxCell id="T_M2wdokr-jcf68sooe3-571" value="" style="dashed=0;shape=rect;strokeColor=none;fillColor=#000000;resizeWidth=1;" vertex="1" parent="T_M2wdokr-jcf68sooe3-568">
          <mxGeometry y="1" width="358" height="48" relative="1" as="geometry">
            <mxPoint y="-48" as="offset" />
          </mxGeometry>
        </mxCell>
        <mxCell id="T_M2wdokr-jcf68sooe3-572" value="" style="dashed=0;shape=mxgraph.gmdl.back;strokeColor=#ffffff;fillColor=#000000;strokeWidth=2;" vertex="1" parent="T_M2wdokr-jcf68sooe3-571">
          <mxGeometry x="0.25" y="0.5" width="14" height="14" relative="1" as="geometry">
            <mxPoint x="-7" y="-7" as="offset" />
          </mxGeometry>
        </mxCell>
        <mxCell id="T_M2wdokr-jcf68sooe3-573" value="" style="shape=ellipse;strokeColor=#ffffff;fillColor=#000000;strokeWidth=2;" vertex="1" parent="T_M2wdokr-jcf68sooe3-571">
          <mxGeometry x="0.5" y="0.5" width="14" height="14" relative="1" as="geometry">
            <mxPoint x="-7" y="-7" as="offset" />
          </mxGeometry>
        </mxCell>
        <mxCell id="T_M2wdokr-jcf68sooe3-574" value="" style="shape=rect;strokeColor=#ffffff;fillColor=#000000;strokeWidth=2;" vertex="1" parent="T_M2wdokr-jcf68sooe3-571">
          <mxGeometry x="0.75" y="0.5" width="14" height="14" relative="1" as="geometry">
            <mxPoint x="-7" y="-7" as="offset" />
          </mxGeometry>
        </mxCell>
        <mxCell id="T_M2wdokr-jcf68sooe3-583" value="" style="dashed=0;align=center;fontSize=12;shape=rect;fillColor=#FFFFFF;strokeColor=none;shadow=0;hachureGap=4;pointerEvents=0;fontFamily=Architects Daughter;fontSource=https%3A%2F%2Ffonts.googleapis.com%2Fcss%3Ffamily%3DArchitects%2BDaughter;" vertex="1" parent="T_M2wdokr-jcf68sooe3-568">
          <mxGeometry x="-1.04" y="547" width="359.04" height="48" as="geometry" />
        </mxCell>
        <mxCell id="T_M2wdokr-jcf68sooe3-584" value="Головна" style="dashed=0;html=1;shape=mxgraph.gmdl.calendar;fillColor=#808080;strokeColor=none;fontColor=#808080;verticalAlign=top;spacingLeft=0;fontSize=10;labelPosition=center;verticalLabelPosition=bottom;align=center;spacingBottom=0;spacingTop=-6;hachureGap=4;pointerEvents=0;fontFamily=Helvetica;aspect=fixed;shadow=0;sketch=0;" vertex="1" parent="T_M2wdokr-jcf68sooe3-583">
          <mxGeometry x="0.15" y="0.5" width="20" height="20" relative="1" as="geometry">
            <mxPoint x="-10" y="-15" as="offset" />
          </mxGeometry>
        </mxCell>
        <mxCell id="T_M2wdokr-jcf68sooe3-585" value="&lt;font color=&quot;#000000&quot;&gt;Щоденник&lt;/font&gt;" style="dashed=0;html=1;shape=mxgraph.gmdl.heart;fillColor=#000000;strokeColor=none;fontColor=#00796B;verticalAlign=top;spacingLeft=0;fontSize=10;labelPosition=center;verticalLabelPosition=bottom;align=center;spacingBottom=0;spacingTop=-5;hachureGap=4;pointerEvents=0;fontFamily=Helvetica;" vertex="1" parent="T_M2wdokr-jcf68sooe3-583">
          <mxGeometry x="0.5" y="0.5" width="20" height="18" relative="1" as="geometry">
            <mxPoint x="-10" y="-14" as="offset" />
          </mxGeometry>
        </mxCell>
        <mxCell id="T_M2wdokr-jcf68sooe3-586" value="Профіль" style="dashed=0;html=1;shape=mxgraph.gmdl.chat;fillColor=#808080;strokeColor=none;fontColor=#808080;verticalAlign=top;spacingLeft=0;fontSize=10;labelPosition=center;verticalLabelPosition=bottom;align=center;spacingBottom=0;spacingTop=-6;hachureGap=4;pointerEvents=0;fontFamily=Helvetica;aspect=fixed;shadow=0;sketch=0;gradientColor=none;fillStyle=solid;" vertex="1" parent="T_M2wdokr-jcf68sooe3-583">
          <mxGeometry x="0.85" y="0.5" width="20" height="20" relative="1" as="geometry">
            <mxPoint x="-10" y="-15" as="offset" />
          </mxGeometry>
        </mxCell>
        <mxCell id="T_M2wdokr-jcf68sooe3-615" value="" style="group" vertex="1" connectable="0" parent="T_M2wdokr-jcf68sooe3-568">
          <mxGeometry x="10" y="81" width="330" height="178" as="geometry" />
        </mxCell>
        <mxCell id="T_M2wdokr-jcf68sooe3-614" value="Четвер, 13 травня" style="text;strokeColor=none;fillColor=none;html=1;align=left;verticalAlign=middle;whiteSpace=wrap;rounded=0;fontSize=14;fontColor=#808080;" vertex="1" parent="T_M2wdokr-jcf68sooe3-615">
          <mxGeometry x="9" width="154" height="30" as="geometry" />
        </mxCell>
        <mxCell id="T_M2wdokr-jcf68sooe3-611" value="&lt;div&gt;&lt;span style=&quot;background-color: initial;&quot;&gt;Настрій: Хороший&lt;/span&gt;&lt;/div&gt;&lt;div&gt;&lt;span style=&quot;background-color: initial;&quot;&gt;&lt;br&gt;&lt;/span&gt;&lt;/div&gt;&lt;div&gt;&lt;span style=&quot;background-color: initial;&quot;&gt;Сьогодні я почуваюся добре через сонце за вікном.&amp;nbsp; Я планую провести день на свіжому повітрі. Надіюся, що ваш день також пройде чудово!&quot;&lt;/span&gt;&lt;br&gt;&lt;/div&gt;" style="text;whiteSpace=wrap;fontSize=13;spacing=16;spacingTop=-4;resizeWidth=1;resizeHeight=1;html=1;" vertex="1" parent="T_M2wdokr-jcf68sooe3-615">
          <mxGeometry width="330" height="93" relative="1" as="geometry">
            <mxPoint y="30" as="offset" />
          </mxGeometry>
        </mxCell>
        <mxCell id="T_M2wdokr-jcf68sooe3-622" value="" style="group" vertex="1" connectable="0" parent="T_M2wdokr-jcf68sooe3-568">
          <mxGeometry x="12" y="244" width="330" height="178" as="geometry" />
        </mxCell>
        <mxCell id="T_M2wdokr-jcf68sooe3-623" value="Среда, 12 травня" style="text;strokeColor=none;fillColor=none;html=1;align=left;verticalAlign=middle;whiteSpace=wrap;rounded=0;fontSize=14;fontColor=#808080;" vertex="1" parent="T_M2wdokr-jcf68sooe3-622">
          <mxGeometry x="9" width="154" height="30" as="geometry" />
        </mxCell>
        <mxCell id="T_M2wdokr-jcf68sooe3-624" value="&lt;div&gt;&lt;span style=&quot;background-color: initial;&quot;&gt;Настрій: Хороший&lt;/span&gt;&lt;/div&gt;&lt;div&gt;&lt;span style=&quot;background-color: initial;&quot;&gt;&lt;br&gt;&lt;/span&gt;&lt;/div&gt;&lt;div&gt;&lt;span style=&quot;background-color: initial;&quot;&gt;Сьогодні я почуваюся добре через сонце за вікном.&amp;nbsp; Я планую провести день на свіжому повітрі. Надіюся, що ваш день також пройде чудово!&quot;&lt;/span&gt;&lt;br&gt;&lt;/div&gt;" style="text;whiteSpace=wrap;fontSize=13;spacing=16;spacingTop=-4;resizeWidth=1;resizeHeight=1;html=1;" vertex="1" parent="T_M2wdokr-jcf68sooe3-622">
          <mxGeometry width="330" height="93" relative="1" as="geometry">
            <mxPoint y="30" as="offset" />
          </mxGeometry>
        </mxCell>
        <mxCell id="T_M2wdokr-jcf68sooe3-625" value="" style="group" vertex="1" connectable="0" parent="T_M2wdokr-jcf68sooe3-568">
          <mxGeometry x="14" y="411" width="330" height="178" as="geometry" />
        </mxCell>
        <mxCell id="T_M2wdokr-jcf68sooe3-626" value="Понеділок, 10 травня" style="text;strokeColor=none;fillColor=none;html=1;align=left;verticalAlign=middle;whiteSpace=wrap;rounded=0;fontSize=14;fontColor=#808080;" vertex="1" parent="T_M2wdokr-jcf68sooe3-625">
          <mxGeometry x="9" width="154" height="30" as="geometry" />
        </mxCell>
        <mxCell id="T_M2wdokr-jcf68sooe3-627" value="&lt;div&gt;&lt;span style=&quot;background-color: initial;&quot;&gt;Настрій: Хороший&lt;/span&gt;&lt;/div&gt;&lt;div&gt;&lt;span style=&quot;background-color: initial;&quot;&gt;&lt;br&gt;&lt;/span&gt;&lt;/div&gt;&lt;div&gt;&lt;span style=&quot;background-color: initial;&quot;&gt;Сьогодні я почуваюся добре через сонце за вікном.&amp;nbsp; Я планую провести день на свіжому повітрі. Надіюся, що ваш день також пройде чудово!&quot;&lt;/span&gt;&lt;br&gt;&lt;/div&gt;" style="text;whiteSpace=wrap;fontSize=13;spacing=16;spacingTop=-4;resizeWidth=1;resizeHeight=1;html=1;" vertex="1" parent="T_M2wdokr-jcf68sooe3-625">
          <mxGeometry width="330" height="93" relative="1" as="geometry">
            <mxPoint y="30" as="offset" />
          </mxGeometry>
        </mxCell>
        <mxCell id="T_M2wdokr-jcf68sooe3-628" value="Травень 2024" style="text;verticalAlign=middle;fontColor=#4D4D4D;spacingTop=6;spacing=16;fontSize=13;align=center;fontStyle=1;resizeWidth=1;whiteSpace=wrap;html=1;" vertex="1" parent="T_M2wdokr-jcf68sooe3-568">
          <mxGeometry x="64.5653999999999" y="27" width="232" height="40" as="geometry" />
        </mxCell>
        <mxCell id="T_M2wdokr-jcf68sooe3-629" value="&gt;" style="text;verticalAlign=middle;fontColor=#4D4D4D;spacingTop=6;spacing=16;fontSize=20;align=center;resizeWidth=1;" vertex="1" parent="T_M2wdokr-jcf68sooe3-568">
          <mxGeometry x="307.8146000000001" y="27" width="48" height="40" as="geometry" />
        </mxCell>
        <mxCell id="T_M2wdokr-jcf68sooe3-630" value="&lt;" style="text;verticalAlign=middle;fontColor=#4D4D4D;spacingTop=6;spacing=16;fontSize=20;align=center;resizeWidth=1;" vertex="1" parent="T_M2wdokr-jcf68sooe3-568">
          <mxGeometry x="2.19" y="27" width="48" height="40" as="geometry" />
        </mxCell>
        <mxCell id="T_M2wdokr-jcf68sooe3-632" value="FR1- FR1.3" style="text;strokeColor=none;fillColor=none;html=1;align=center;verticalAlign=middle;whiteSpace=wrap;rounded=0;fontSize=16;" vertex="1" parent="1">
          <mxGeometry x="-856" y="-5" width="173" height="30" as="geometry" />
        </mxCell>
        <mxCell id="T_M2wdokr-jcf68sooe3-633" value="FR1.4" style="text;strokeColor=none;fillColor=none;html=1;align=center;verticalAlign=middle;whiteSpace=wrap;rounded=0;fontSize=16;" vertex="1" parent="1">
          <mxGeometry x="-853" y="686" width="173" height="30" as="geometry" />
        </mxCell>
        <mxCell id="T_M2wdokr-jcf68sooe3-634" value="FR2 - FR2.2" style="text;strokeColor=none;fillColor=none;html=1;align=center;verticalAlign=middle;whiteSpace=wrap;rounded=0;fontSize=16;" vertex="1" parent="1">
          <mxGeometry x="-853" y="1542" width="173" height="28" as="geometry" />
        </mxCell>
        <mxCell id="T_M2wdokr-jcf68sooe3-635" value="FR2.3 - FR2.4" style="text;strokeColor=none;fillColor=none;html=1;align=center;verticalAlign=middle;whiteSpace=wrap;rounded=0;fontSize=16;" vertex="1" parent="1">
          <mxGeometry x="-853" y="2335" width="173" height="28" as="geometry" />
        </mxCell>
      </root>
    </mxGraphModel>
  </diagram>
</mxfile>
